<svg id="Слой_1" data-name="Слой 1" xmlns="http://www.w3.org/2000/svg" viewBox="0 0 15.75 13.49"><defs></defs><title>popular-tv</title><g id="Слой_1-2" data-name="Слой_1"><g id="Line_Icons" data-name="Line Icons"><path class="cls-1" d="M17.06,5.53a0.74,0.74,0,0,0-.57-0.28H12v-3a0.73,0.73,0,0,0-.74-0.74H9A0.75,0.75,0,0,0,8.31,2l-2,4.79H6A0.76,0.76,0,0,0,5.24,6h-3a0.75,0.75,0,0,0-.74.74v7.51a0.75,0.75,0,0,0,.74.74h3A0.76,0.76,0,0,0,6,14.26v-0.4l2.72,1.08A0.47,0.47,0,0,0,9,15h6a0.73,0.73,0,0,0,.74-0.62l1.5-8.25A0.68,0.68,0,0,0,17.06,5.53Zm-12.56,8H3v-6h1.5v6Zm9.86,0H9.16L6,12.25v-4H6.75A0.71,0.71,0,0,0,7.43,7.8L9.5,3h1V6a0.76,0.76,0,0,0,.77.74h4.34Z" transform="translate(-1.5 -1.5)"/></g></g></svg>