<svg id="Слой_1" data-name="Слой 1" xmlns="http://www.w3.org/2000/svg" viewBox="0 0 18 18"><defs></defs><title>toy-child</title><g id="Слой_1-2" data-name="Слой_1"><g id="Line_Icons" data-name="Line Icons"><path class="cls-1" d="M17.91,11.65L15.76,7.31V4.51h1.5V3H9.75V0H8.25V3H0.74v1.5h1.5V6.09a3,3,0,1,0,1.5,0V4.51H8.25V9.64A4,4,0,0,0,6,13.49C6,16.33,8,18,11.25,18a0.71,0.71,0,0,0,.68-0.45,0.78,0.78,0,0,0-.14-0.82,4.89,4.89,0,0,1-1.3-3.23,4.78,4.78,0,0,1,1.3-3.2,0.79,0.79,0,0,0,.14-0.82A0.73,0.73,0,0,0,11.25,9a8.2,8.2,0,0,0-1.5.14V4.51h4.51V7.31l-2.18,4.34a0.76,0.76,0,0,0,0,.74,0.79,0.79,0,0,0,.65.37h4.51a0.74,0.74,0,0,0,.62-0.37A0.76,0.76,0,0,0,17.91,11.65ZM4.51,9A1.5,1.5,0,1,1,3,7.51,1.49,1.49,0,0,1,4.51,9Zm5.19,7.34a2.67,2.67,0,0,1-2.18-2.83,2.64,2.64,0,0,1,2.18-2.81A6.1,6.1,0,0,0,9,13.49,6.32,6.32,0,0,0,9.69,16.33ZM14,11.25l1-2.07,1,2.07H14Z"/></g></g></svg>