<svg id="Слой_1" data-name="Слой 1" xmlns="http://www.w3.org/2000/svg" viewBox="0 0 18 18"><defs></defs><title>tv</title><g id="Слой_1-2" data-name="Слой_1"><g id="Line_Icons" data-name="Line Icons"><path class="cls-1" d="M16.5,3H1.5A1.51,1.51,0,0,0,0,4.51v9A1.51,1.51,0,0,0,1.5,15H3.43l-1.7,1.73a0.7,0.7,0,0,0,0,1,0.76,0.76,0,0,0,.51.23,0.77,0.77,0,0,0,.54-0.23L5.56,15h6.89l2.78,2.78a0.77,0.77,0,0,0,.54.23,0.76,0.76,0,0,0,.51-0.23,0.7,0.7,0,0,0,0-1L14.57,15H16.5a1.51,1.51,0,0,0,1.5-1.5v-9A1.51,1.51,0,0,0,16.5,3ZM1.5,13.49v-9h15v9H1.5Z" transform="translate(0 0)"/><path class="cls-1" d="M14.46,6A19.32,19.32,0,0,0,3.54,6,0.73,0.73,0,0,0,3,6.75v4.51a0.73,0.73,0,0,0,.54.71A19.21,19.21,0,0,0,9,12.76,19.16,19.16,0,0,0,14.46,12,0.73,0.73,0,0,0,15,11.25V6.75A0.73,0.73,0,0,0,14.46,6Zm-1,4.65a17.87,17.87,0,0,1-9,0V7.31a17.87,17.87,0,0,1,9,0v3.37Z" transform="translate(0 0)"/><path class="cls-1" d="M14.17,1.08a0.75,0.75,0,0,0-.34-1,0.72,0.72,0,0,0-1,.34L11.91,2.24h1.67Z" transform="translate(0 0)"/><path class="cls-1" d="M9.67,2.24h1.67L10.43,0.43a0.76,0.76,0,0,0-1-.34,0.75,0.75,0,0,0-.34,1Z" transform="translate(0 0)"/></g></g></svg>