<svg id="Слой_1" data-name="Слой 1" xmlns="http://www.w3.org/2000/svg" viewBox="0 0 15.02 13.49"><defs></defs><title>accumulative-discount</title><g id="Слой_1-2" data-name="Слой_1"><g id="_2313418167392" data-name=" 2313418167392"><g id="Line_Icons" data-name="Line Icons"><path class="cls-1" d="M8.93,7.51A7.52,7.52,0,0,0,1.42,15a0.76,0.76,0,0,0,.77.74H15.68A0.76,0.76,0,0,0,16.44,15,7.52,7.52,0,0,0,8.93,7.51ZM3,14.26a6,6,0,0,1,11.91,0H3Z" transform="translate(-1.42 -2.27)"/><path class="cls-1" d="M8.93,6.77a8.19,8.19,0,0,1,6.12,2.75l1.13-1a10.13,10.13,0,0,0-4-2.66,2.16,2.16,0,0,0,.45-1.33,2.23,2.23,0,0,0-2.24-2.24,2.28,2.28,0,0,0-1.5.57,2.34,2.34,0,0,0-1.5-.57A2.23,2.23,0,0,0,5.19,4.51a2.16,2.16,0,0,0,.45,1.33,10.13,10.13,0,0,0-4,2.66l1.11,1A8.3,8.3,0,0,1,8.93,6.77Zm1.5-3a0.75,0.75,0,0,1,0,1.5A0.75,0.75,0,1,1,10.43,3.77Zm-3,0a0.75,0.75,0,1,1,0,1.5A0.75,0.75,0,0,1,7.43,3.77Z" transform="translate(-1.42 -2.27)"/></g></g></g></svg>