<svg id="Слой_1" data-name="Слой 1" xmlns="http://www.w3.org/2000/svg" viewBox="0 0 23.71 24"><defs></defs><title>auction</title><g id="Line_Icons" data-name="Line Icons"><path class="cls-1" d="M9,20a1,1,0,0,0-1-1H2a1,1,0,0,0-1,1v2H0v2H10V22H9V20ZM3,22V21H7v1H3Z" transform="translate(0 0)"/><path class="cls-1" d="M22.29,19.71l1.41-1.41L15.91,10.5,17,9.41l0.29,0.29a1,1,0,0,0,1.41,0l2-2a1,1,0,0,0,0-1.41l-6-6a1,1,0,0,0-1.41,0l-2,2a1,1,0,0,0,0,1.41L11.59,4,8,7.59,7.71,7.29a1,1,0,0,0-1.41,0l-2,2a1,1,0,0,0,0,1.41l6,6a1,1,0,0,0,1.41,0l2-2a1,1,0,0,0,0-1.41L13.41,13l1.09-1.09ZM14,2.41L18.59,7,18,7.59,13.41,3ZM11,14.59L6.41,10,7,9.41,11.59,14Zm2-9.17L15.59,8,12,11.59,9.41,9Z" transform="translate(0 0)"/></g></svg>