<svg id="Слой_1" data-name="Слой 1" xmlns="http://www.w3.org/2000/svg" viewBox="0 0 29.85 55.54"><defs></defs><title>babys-dummy</title><g id="Слой_1-2" data-name="Слой_1"><path class="cls-1" d="M37.11,13.35a5.12,5.12,0,0,0-1.56-1h0A4.68,4.68,0,0,0,33.76,12h0a4.82,4.82,0,0,0-1.81.37,5,5,0,0,0-1.53,1,5.08,5.08,0,0,0-1,1.53h0A4.91,4.91,0,0,0,29,16.7h0v3.23L28.77,20a7,7,0,0,0-1.87.68h0a6,6,0,0,0-1.59,1.19A6.21,6.21,0,0,0,24,23.59a6.83,6.83,0,0,0-.68,2.07l0,0.28H22.68a3.6,3.6,0,0,0-1.47.28A3.82,3.82,0,0,0,20,27a4.07,4.07,0,0,0-.85,1.25,3.79,3.79,0,0,0-.28,1.47,3.6,3.6,0,0,0,.28,1.47A3.49,3.49,0,0,0,20,32.49a2.86,2.86,0,0,0,.65.54h0a3,3,0,0,0,.82.37l0.23,0.09V62.23A5.24,5.24,0,0,0,23.19,66a5.71,5.71,0,0,0,1.73,1.13,5.31,5.31,0,0,0,2,.4H40.57a5.23,5.23,0,0,0,5.27-5.24V33.48l0.23-.09A3,3,0,0,0,46.89,33h0a3.77,3.77,0,0,0,.68-0.54,3.42,3.42,0,0,0,.82-1.25,3.6,3.6,0,0,0,.28-1.47h0a3.79,3.79,0,0,0-.28-1.47h0A4,4,0,0,0,47.57,27a4.54,4.54,0,0,0-1.25-.82h0a3.79,3.79,0,0,0-1.47-.28H44.17l0-.28A7,7,0,0,0,42.33,22a6.89,6.89,0,0,0-3.57-2l-0.28-.06V16.7h0a4.91,4.91,0,0,0-.34-1.81A5,5,0,0,0,37.11,13.35Zm-2.35,26a0.77,0.77,0,1,1,0-1.53H41a0.77,0.77,0,1,1,0,1.53H34.76Zm0,20.24a0.77,0.77,0,1,1,0-1.53H41a0.77,0.77,0,1,1,0,1.53H34.76Zm0-7A0.81,0.81,0,0,1,34,51.74,0.79,0.79,0,0,1,34.76,51H41a0.76,0.76,0,0,1,.77.77,0.79,0.79,0,0,1-.77.79H34.76Zm0-6.61a0.77,0.77,0,1,1,0-1.53H41a0.77,0.77,0,1,1,0,1.53H34.76Zm9.5,16.3a3.78,3.78,0,0,1-3.69,3.69H26.93a4.07,4.07,0,0,1-1.42-.28h0a4,4,0,0,1-1.19-.79,3.53,3.53,0,0,1-1-2.61h0V33.62h21v28.6Zm2.83-32.46h0A2.33,2.33,0,0,1,44.85,32H22.68a2.31,2.31,0,0,1-.88-0.17h0a3,3,0,0,1-.74-0.48,3,3,0,0,1-.48-0.74h0a2.31,2.31,0,0,1-.17-0.88,2.28,2.28,0,0,1,.17-0.85h0a2.55,2.55,0,0,1,.48-0.74,3,3,0,0,1,.74-0.48h0a2.31,2.31,0,0,1,.88-0.17H44.85a2.23,2.23,0,0,1,2.24,2.24h0ZM36.88,16.7v3.94a0.73,0.73,0,0,0,.23.54,0.62,0.62,0,0,0,.54.26,5.36,5.36,0,0,1,4.85,4.08l0.09,0.43H24.92L25,25.51a5.53,5.53,0,0,1,4.88-4.08,0.77,0.77,0,0,0,.54-0.23,1,1,0,0,0,.2-0.57h0V16.7a3.2,3.2,0,0,1,3.15-3.12h0a3.41,3.41,0,0,1,1.19.23h0a4,4,0,0,1,1,.68h0a4,4,0,0,1,.68,1h0a3.41,3.41,0,0,1,.23,1.19h0Z" transform="translate(-18.82 -11.96)"/></g></svg>