<svg id="Слой_1" data-name="Слой 1" xmlns="http://www.w3.org/2000/svg" viewBox="0 0 52.18 58.99"><defs></defs><title>baby-buggy</title><g id="Слой_1-2" data-name="Слой_1"><path class="cls-1" d="M55.39,60.36a2.7,2.7,0,0,0-1.9.79h0a2.67,2.67,0,0,0,0,3.8h0a2.67,2.67,0,0,0,3.8,0h0a2.67,2.67,0,0,0,0-3.8h0A2.7,2.7,0,0,0,55.39,60.36ZM55,58.63l0.68-4.79-30.36,5a6.4,6.4,0,0,1,.54,2.52A6.1,6.1,0,0,1,24,65.71h0A6.2,6.2,0,0,1,19.7,67.5a6.1,6.1,0,0,1-4.34-1.79l-0.06-.06a6.09,6.09,0,0,1-1.73-4.28A6.2,6.2,0,0,1,15.37,57h0a6.15,6.15,0,0,1,6.27-1.47l7.26-8.22-13-23.9c-3.57-2.69-6-5.24-7.2-7.63A6.86,6.86,0,0,1,8.79,8.5l1.47,1A5.22,5.22,0,0,0,10.21,15c1.08,2.07,3.2,4.34,6.41,6.8a27.15,27.15,0,0,0,5.1-3.49l0,0a30,30,0,0,0,4.88-5.39,0.87,0.87,0,0,1,.91-0.34h0a37.52,37.52,0,0,0,7.31,1,32.37,32.37,0,0,0,7.51-.6,0.92,0.92,0,0,1,1,.71v0.2a24.78,24.78,0,0,1-2.61,11.82A40.05,40.05,0,0,1,35,34.27H53.52a0.86,0.86,0,0,1,.88.85h0A19.62,19.62,0,0,1,53.33,42a24.37,24.37,0,0,1-2.64,5.22l6.52,4.85h0a1,1,0,0,1,.34.82L56.7,58.8a4.52,4.52,0,0,1,1.84,1.11h0A4.53,4.53,0,0,1,59.85,63a4.48,4.48,0,0,1-1.3,3.15h0a4.41,4.41,0,0,1-3.15,1.3,4.37,4.37,0,0,1-3.15-1.3h0A4.37,4.37,0,0,1,50.94,63a4.41,4.41,0,0,1,1.3-3.15h0A4.38,4.38,0,0,1,55,58.63ZM24.24,57.27l30.25-5-5.24-3.88-18.88,0-7.12,8.05A8.82,8.82,0,0,1,24,57h0v0A1.31,1.31,0,0,1,24.24,57.27Zm-1.45,1a4.38,4.38,0,0,0-6.18,0h0a4.38,4.38,0,0,0,0,6.15l0,0a4.38,4.38,0,0,0,6.18,0h0a4.32,4.32,0,0,0,1.28-3.09,4.37,4.37,0,0,0-1.28-3.09h0ZM35.69,36L49.27,46.18a21.38,21.38,0,0,0,2.38-4.76,17.78,17.78,0,0,0,1-5.39h-17ZM30.48,46.58l16.41,0L19.22,26ZM18.17,23L31.55,33,26.93,15.42a31.85,31.85,0,0,1-4,4.22l-0.06,0A29.23,29.23,0,0,1,18.17,23Zm16.61-7.65a36,36,0,0,1-6.27-.74l5,18.77a39.64,39.64,0,0,0,5.75-8.42,23.69,23.69,0,0,0,2.44-10A35.43,35.43,0,0,1,34.78,15.34Z" transform="translate(-7.66 -8.5)"/></g></svg>