<svg id="Слой_1" data-name="Слой 1" xmlns="http://www.w3.org/2000/svg" viewBox="0 0 24 24"><defs></defs><title>bank-note-fire</title><g id="Line_Icons" data-name="Line Icons"><path class="cls-1" d="M23.71,9.29l-9-9a1,1,0,0,0-1.41,0L8,5.59V8.41L10.41,6h7.17l4,4L12,19.62A7,7,0,0,1,9.87,24L10,24a1,1,0,0,0,.71-0.29l13-13A1,1,0,0,0,23.71,9.29ZM12.41,4L14,2.41,15.59,4H12.41Z" transform="translate(0 0)"/><path class="cls-1" d="M8.71,15.29a1,1,0,0,0-1.26-.12L6,16.13V10a1,1,0,0,0-1.83-.56C3.74,10.09,0,15.79,0,19a5,5,0,0,0,5,5,5.13,5.13,0,0,0,5-5A5.31,5.31,0,0,0,8.71,15.29ZM5,22a3,3,0,0,1-3-3c0-1.32,1-3.49,2-5.38V18a1,1,0,0,0,1.55.83L7.7,17.4A4.11,4.11,0,0,1,8,19,3.16,3.16,0,0,1,5,22Z" transform="translate(0 0)"/><path class="cls-1" d="M10.12,13.88a6.48,6.48,0,0,1,1.3,2.06A4,4,0,1,0,8,12c0,0.13,0,.25,0,0.37l0.35-.23ZM12,10a2,2,0,1,1-2,2A2,2,0,0,1,12,10Z" transform="translate(0 0)"/></g></svg>