<svg id="Слой_1" data-name="Слой 1" xmlns="http://www.w3.org/2000/svg" viewBox="0 0 17.78 17.57"><defs></defs><title>basket confirm white</title><g id="Слой_1-2" data-name="Слой_1"><g id="Line_Icons" data-name="Line Icons"><path class="cls-1" d="M10.49,8.25V6h0.82l0.43,5.24h1.53L12.76,5.19A0.75,0.75,0,0,0,12,4.51h-1.5V3.74A3.74,3.74,0,0,0,3,3.74V4.51H1.5a0.72,0.72,0,0,0-.74.68L0,14.2a0.74,0.74,0,0,0,.2.57A0.77,0.77,0,0,0,.74,15h9v-1.5H1.56L2.18,6H3V8.25h1.5V6H9V8.25h1.47Zm-6-3.74V3.74A2.24,2.24,0,0,1,6.75,1.5,2.27,2.27,0,0,1,9,3.74V4.51H4.51Z" transform="translate(0.01)"/><path class="cls-1" d="M16.72,12.22l-3.23,3.23-1.7-1.73-1.08,1,2.78,2.81,4.28-4.28Z" transform="translate(0.01)"/></g></g></svg>