<svg id="Слой_1" data-name="Слой 1" xmlns="http://www.w3.org/2000/svg" viewBox="0 0 13.52 15"><defs></defs><title>basket-white</title><g id="Слой_1-2" data-name="Слой_1"><g id="_1809418935808" data-name=" 1809418935808"><g id="Line_Icons" data-name="Line Icons"><path class="cls-1" d="M15,6.69A0.74,0.74,0,0,0,14.26,6h-1.5V5.24a3.76,3.76,0,0,0-7.51,0V6H3.74A0.74,0.74,0,0,0,3,6.69l-0.77,9a0.89,0.89,0,0,0,.2.6A0.79,0.79,0,0,0,3,16.5H15a0.79,0.79,0,0,0,.57-0.23,0.89,0.89,0,0,0,.2-0.6ZM6.75,5.24a2.25,2.25,0,0,1,4.51,0V6H6.75V5.24ZM3.83,15L4.45,7.51H5.24V9.75h1.5V7.51h4.51V9.75h1.5V7.51h0.79L14.17,15H3.83Z" transform="translate(-2.24 -1.5)"/></g></g></g></svg>