<svg id="Слой_1" data-name="Слой 1" xmlns="http://www.w3.org/2000/svg" viewBox="0 0 22 21"><defs></defs><title>calendar-heart</title><g id="Line_Icons" data-name="Line Icons"><path class="cls-1" d="M12,18c0.43-.25,5.12-2.78,5.12-6.24,0-3-4-4.16-5.12-.16-1.13-4-5.12-2.89-5.12.16C6.88,15,12,18,12,18Z" transform="translate(-1 -1)"/><path class="cls-1" d="M21,3H18V1H16V7h2V5h3V20H3V5H5V3H3A2,2,0,0,0,1,5V20a2,2,0,0,0,2,2H21a2,2,0,0,0,2-2V5A2,2,0,0,0,21,3Z" transform="translate(-1 -1)"/><polygon class="cls-1" points="14 2 7 2 7 0 5 0 5 6 7 6 7 4 14 4 14 2"/></g></svg>