<svg id="Слой_1" data-name="Слой 1" xmlns="http://www.w3.org/2000/svg" viewBox="0 0 15.53 15.53"><defs></defs><title>callback-modal</title><g id="Слой_1-2" data-name="Слой_1"><g id="Line_Icons" data-name="Line Icons"><path class="cls-1" d="M15,7.51H11.57l4.71-4.73-1-1L10.49,6.43V3H9V9h6V7.51Z" transform="translate(-0.74 -1.73)"/><path class="cls-1" d="M13.49,11.25h-3A1.48,1.48,0,0,0,9,12.7,4.39,4.39,0,0,1,5.33,9,1.47,1.47,0,0,0,6.75,7.51v-3A1.51,1.51,0,0,0,5.24,3h-3a1.51,1.51,0,0,0-1.5,1.5V8.25a9,9,0,0,0,9,9h3.74a1.51,1.51,0,0,0,1.5-1.5v-3A1.51,1.51,0,0,0,13.49,11.25ZM9.75,15.76A7.52,7.52,0,0,1,2.24,8.25V4.51h3v3H4.51a0.75,0.75,0,0,0-.54.2,0.83,0.83,0,0,0-.23.54,5.94,5.94,0,0,0,6,6,0.74,0.74,0,0,0,.74-0.77V12.76h3v3H9.75Z" transform="translate(-0.74 -1.73)"/></g></g></svg>