<svg id="Слой_1" data-name="Слой 1" xmlns="http://www.w3.org/2000/svg" viewBox="0 0 14.99 15"><defs></defs><title>cart-modal</title><g id="Слой_1-2" data-name="Слой_1"><g id="Line_Icons" data-name="Line Icons"><path class="cls-1" d="M13.49,1.5a0.76,0.76,0,0,0-.74.57L12,5.24H2.24a0.74,0.74,0,0,0-.57.28,0.78,0.78,0,0,0-.14.65l1.5,6a0.73,0.73,0,0,0,.71.57h7.51a0.78,0.78,0,0,0,.74-0.6L14.09,3H16.5V1.5h-3ZM11.68,6.75l-0.34,1.5H3.6L3.2,6.75h8.48ZM4.34,11.25L4,9.75h7l-0.34,1.5H4.34Z" transform="translate(-1.51 -1.5)"/><circle class="cls-1" cx="3" cy="13.49" r="1.5"/><circle class="cls-1" cx="8.98" cy="13.49" r="1.5"/></g></g></svg>