<svg id="Слой_1" data-name="Слой 1" xmlns="http://www.w3.org/2000/svg" viewBox="0 0 10.52 14.26"><defs></defs><title>change-pass-modal</title><g id="Слой_1-2" data-name="Слой_1"><g id="Line_Icons" data-name="Line Icons"><circle class="cls-1" cx="5.27" cy="10.15" r="1.13"/><path class="cls-1" d="M12.76,8.25h-6V6a2.25,2.25,0,1,1,4.51,0V6.75h1.5V6A3.76,3.76,0,1,0,5.24,6V8.25a1.51,1.51,0,0,0-1.5,1.5V15a1.51,1.51,0,0,0,1.5,1.5h7.51a1.51,1.51,0,0,0,1.5-1.5V9.75A1.51,1.51,0,0,0,12.76,8.25ZM5.24,15V9.75h7.51V15H5.24Z" transform="translate(-3.74 -2.24)"/></g></g></svg>