<svg id="Слой_1" data-name="Слой 1" xmlns="http://www.w3.org/2000/svg" viewBox="0 0 18.01 18.01"><defs></defs><title>comment-modal</title><g id="Слой_1-2" data-name="Слой_1"><g id="Line_Icons" data-name="Line Icons"><path class="cls-1" d="M14,9.75a4.55,4.55,0,0,1,.28,1.5c0,2.89-2.69,5.24-6,5.24H2.47l1-1.08a0.74,0.74,0,0,0,0-1,4.73,4.73,0,0,1-1.25-3.17c0-2.66,2.3-4.88,5.27-5.22V4.54c-3.8.34-6.77,3.23-6.77,6.72a6.24,6.24,0,0,0,1.19,3.63L0.2,16.75A0.74,0.74,0,0,0,.74,18H8.25c4.14,0,7.51-3,7.51-6.75a6.61,6.61,0,0,0-.2-1.5H14Z" transform="translate(0 0.01)"/><path class="cls-1" d="M15.53,0.23a0.74,0.74,0,0,0-1.08,0L9.21,5.47a0.83,0.83,0,0,0-.2.34l-0.74,3a0.75,0.75,0,0,0,.91.91l3-.74a0.83,0.83,0,0,0,.34-0.2l5.24-5.24a0.74,0.74,0,0,0,0-1.08ZM11.62,7.57L10,8l0.4-1.59,2.32-2.32,1.19,1.19ZM15,4.2L13.8,3,15,1.81,16.19,3Z" transform="translate(0 0.01)"/></g></g></svg>