<svg id="Слой_1" data-name="Слой 1" xmlns="http://www.w3.org/2000/svg" viewBox="0 0 13.52 15"><defs></defs><title>contact-book-red-mob</title><g id="Слой_1-2" data-name="Слой_1"><g id="_1809455448208" data-name=" 1809455448208"><g id="Line_Icons" data-name="Line Icons"><path class="cls-1" d="M14.26,1.5h-9A1.51,1.51,0,0,0,3.74,3v1.5H2.24V6h1.5V8.25H2.24v1.5h1.5V12H2.24v1.5h1.5V15a1.51,1.51,0,0,0,1.5,1.5h9a1.51,1.51,0,0,0,1.5-1.5V3A1.51,1.51,0,0,0,14.26,1.5ZM5.24,15v-1.5H6V12H5.24V9.75H6V8.25H5.24V6H6V4.51H5.24V3h9V15h-9Z" transform="translate(-2.24 -1.5)"/><path class="cls-1" d="M9.67,6.12L10.2,6.66a0.38,0.38,0,0,0,.57,0l1.11-1.11a0.38,0.38,0,0,0,0-.57L10.77,3.88a0.38,0.38,0,0,0-.57,0L8.82,5.27h0a4.94,4.94,0,0,0,0,6.72h0l1.39,1.39a0.38,0.38,0,0,0,.57,0l1.11-1.11a0.38,0.38,0,0,0,0-.57l-1.11-1.13a0.43,0.43,0,0,0-.57,0l-0.54.57A3.77,3.77,0,0,1,9.67,6.12Z" transform="translate(-2.24 -1.5)"/></g></g></g></svg>