<svg id="Слой_1" data-name="Слой 1" xmlns="http://www.w3.org/2000/svg" viewBox="0 0 18 13.52"><defs></defs><title>coupon</title><g id="Слой_1-2" data-name="Слой_1"><g id="Line_Icons" data-name="Line Icons"><path class="cls-1" d="M17.26,7.51A0.76,0.76,0,0,0,18,6.75V3a0.76,0.76,0,0,0-.74-0.77H0.74A0.76,0.76,0,0,0,0,3V6.75a0.76,0.76,0,0,0,.74.77,1.49,1.49,0,1,1,0,3,0.76,0.76,0,0,0-.74.77V15a0.76,0.76,0,0,0,.74.77H17.26A0.76,0.76,0,0,0,18,15V11.25a0.76,0.76,0,0,0-.74-0.77A1.49,1.49,0,1,1,17.26,7.51ZM16.5,11.91v2.35h-3v-1.5H12v1.5H1.5V11.91A3,3,0,0,0,3.74,9,3,3,0,0,0,1.5,6.09V3.74H12v1.5h1.5V3.74h3V6.09A3,3,0,0,0,16.5,11.91Z" transform="translate(0 -2.24)"/><rect class="cls-1" x="11.99" y="4.51" width="1.5" height="1.5"/><rect class="cls-1" x="11.99" y="7.51" width="1.5" height="1.5"/><rect class="cls-1" x="4.16" y="7.88" width="7.42" height="1.5" transform="translate(-3.79 5.86) rotate(-45)"/><circle class="cls-1" cx="6.01" cy="4.51" r="1.5"/><circle class="cls-1" cx="9.75" cy="8.25" r="1.5"/></g></g></svg>