<svg id="Слой_1" data-name="Слой 1" xmlns="http://www.w3.org/2000/svg" viewBox="0 0 18 18"><defs></defs><title>delivery-time</title><g id="Слой_1-2" data-name="Слой_1"><g id="Line_Icons" data-name="Line Icons"><path class="cls-1" d="M15,6V5.24h0A0.83,0.83,0,0,0,14.94,5s0-.06,0-0.06,0-.06,0-0.09l-3-4.51A0.71,0.71,0,0,0,11.25,0H3.74a0.71,0.71,0,0,0-.62.34l-3,4.51s0,0.06,0,.09A0.1,0.1,0,0,0,.06,5,0.83,0.83,0,0,0,0,5.24H0v9A0.75,0.75,0,0,0,.74,15H6v-1.5H1.5V6H15Zm-2.15-1.5H8.25v-3h2.61Zm-8.7-3H6.75v3H2.15Z"/><path class="cls-1" d="M12.76,7.48A5.26,5.26,0,1,0,18,12.76,5.27,5.27,0,0,0,12.76,7.48Zm0,9a3.76,3.76,0,1,1,3.74-3.74A3.74,3.74,0,0,1,12.76,16.5Z"/><path class="cls-1" d="M13.49,9.75H12v3.74h3V12h-1.5V9.75Z"/></g></g></svg>