<svg id="Слой_1" data-name="Слой 1" xmlns="http://www.w3.org/2000/svg" viewBox="0 0 11.99 15.22"><defs></defs><title>delivery-min-modal</title><g id="Слой_1-2" data-name="Слой_1"><g id="Line_Icons" data-name="Line Icons"><path class="cls-1" d="M9,4.51l-3.74,3h1.5V9.75h1.5V8.25h1.5v1.5h1.5V7.51h1.5Z" transform="translate(-3 -1.5)"/><path class="cls-1" d="M9,1.5a6,6,0,0,0-6,6c0,3.29,3.49,7.06,6,9.21,2.52-2.15,6-5.92,6-9.21A6,6,0,0,0,9,1.5ZM9,14.74C7.4,13.24,4.51,10,4.51,7.51a4.49,4.49,0,1,1,9,0C13.49,10,10.6,13.24,9,14.74Z" transform="translate(-3 -1.5)"/></g></g></svg>