<svg id="Слой_1" data-name="Слой 1" xmlns="http://www.w3.org/2000/svg" viewBox="0 0 8.99 10.69"><defs></defs><title>delivery-ems</title><g id="Слой_1-2" data-name="Слой_1"><path class="cls-1" d="M9,3.37c-2.27,0-4.51.28-4.51,2.24V11a2,2,0,0,0,2,2l-0.85.85v0.28H6.89L8,12.93h2.13l1.13,1.13h1.13V13.78l-0.85-.85a2,2,0,0,0,2-2V5.61C13.49,3.66,11.48,3.37,9,3.37ZM6.46,11.82A0.87,0.87,0,0,1,5.61,11a0.85,0.85,0,0,1,.85-0.85,0.84,0.84,0,0,1,.85.85A0.85,0.85,0,0,1,6.46,11.82Zm2-3.94H5.61V5.61H8.45V7.88h0Zm1.11,0V5.61h2.83V7.88H9.55Zm2,3.94A0.85,0.85,0,0,1,10.69,11a0.84,0.84,0,0,1,.85-0.85,0.85,0.85,0,0,1,.85.85A0.87,0.87,0,0,1,11.54,11.82Z" transform="translate(-4.51 -3.37)"/></g></svg>