<svg id="Слой_1" data-name="Слой 1" xmlns="http://www.w3.org/2000/svg" viewBox="0 0 12.39 8.99"><defs></defs><title>delivery-tk</title><g id="Слой_1-2" data-name="Слой_1"><path class="cls-1" d="M13.49,6.75H11.82V4.51H3.94A1.13,1.13,0,0,0,2.81,5.61v6.21H3.94a1.69,1.69,0,0,0,3.37,0h3.37a1.68,1.68,0,0,0,1.7,1.67,1.66,1.66,0,0,0,1.67-1.67h1.13V9Zm-7.88,5.9a0.84,0.84,0,0,1,0-1.67A0.84,0.84,0,1,1,5.61,12.64Zm7.6-5L14.31,9H11.82V7.6h1.39Zm-0.82,5a0.84,0.84,0,1,1,.82-0.82A0.83,0.83,0,0,1,12.39,12.64Z" transform="translate(-2.81 -4.51)"/></g></svg>