<svg id="Слой_1" data-name="Слой 1" xmlns="http://www.w3.org/2000/svg" viewBox="0 0 17.77 18.01"><defs><style>.cls-1{fill:#656d78;}</style></defs><title>lk-modal</title><g id="Слой_1-2" data-name="Слой_1"><g id="Line_Icons" data-name="Line Icons"><path class="cls-1" d="M6,12A3,3,0,1,1,9,9,3,3,0,0,1,6,12ZM6,7.51A1.49,1.49,0,0,0,4.51,9a1.5,1.5,0,0,0,3,0A1.49,1.49,0,0,0,6,7.51Z" transform="translate(0 0.01)"/><path class="cls-1" d="M12,18H0V17.26c0-2.66,2.47-4.51,6-4.51s6,1.84,6,4.51V18ZM1.62,16.5h8.76C9.92,15.14,8.25,14.26,6,14.26S2.07,15.14,1.62,16.5Z" transform="translate(0 0.01)"/><path class="cls-1" d="M14.26,7.51h-3v-3L9.75,6V8.25a0.76,0.76,0,0,0,.74.77H15a0.76,0.76,0,0,0,.77-0.77V6l-1.5-1.5v3Z" transform="translate(0 0.01)"/><path class="cls-1" d="M16.72,5.78l-4-4-4,4-1.08-1,4.51-4.51a0.74,0.74,0,0,1,1.08,0l4.48,4.51Z" transform="translate(0 0.01)"/></g></g></svg>