<svg id="Слой_1" data-name="Слой 1" xmlns="http://www.w3.org/2000/svg" viewBox="0 0 18 18"><defs></defs><title>exchanges-return</title><g id="Слой_1-2" data-name="Слой_1"><g id="Line_Icons" data-name="Line Icons"><path class="cls-1" d="M9,15H6.75v1.5H9V18l2.27-2.24L9,13.49V15ZM9,0L6.75,2.24,9,4.51V3h2.27V1.5H9V0ZM9.75,5.24H8.25V6a1.88,1.88,0,0,0,.37,3.71H9.38a0.37,0.37,0,1,1,0,.74H6.75V12h1.5v0.77h1.5V12a1.88,1.88,0,0,0-.37-3.71H8.62a0.37,0.37,0,1,1,0-.74h2.64V6H9.75V5.24ZM5.24,6.75A2.23,2.23,0,0,0,3,4.51,2.24,2.24,0,1,0,3,9,2.23,2.23,0,0,0,5.24,6.75ZM3,7.51A0.75,0.75,0,1,1,3,6,0.75,0.75,0,0,1,3,7.51ZM3,9a3,3,0,0,0-3,3v2.27A0.75,0.75,0,0,0,.74,15v1.5a0.76,0.76,0,0,0,.77.77h3a0.76,0.76,0,0,0,.74-0.77V15A0.76,0.76,0,0,0,6,14.26V12A3,3,0,0,0,3,9Zm1.5,4.51a0.76,0.76,0,0,0-.77.77v1.5H2.24v-1.5a0.74,0.74,0,0,0-.74-0.77V12a1.5,1.5,0,0,1,3,0v1.5ZM17.26,6.75A2.25,2.25,0,0,0,15,4.51a2.23,2.23,0,0,0-2.24,2.24A2.25,2.25,0,0,0,15,9,2.27,2.27,0,0,0,17.26,6.75ZM15,7.51a0.75,0.75,0,1,1,.77-0.77A0.76,0.76,0,0,1,15,7.51ZM15,9a3,3,0,0,0-3,3v2.27a0.76,0.76,0,0,0,.77.74v1.5a0.76,0.76,0,0,0,.74.77h3a0.76,0.76,0,0,0,.77-0.77V15A0.75,0.75,0,0,0,18,14.26V12A3,3,0,0,0,15,9Zm1.5,4.51a0.74,0.74,0,0,0-.74.77v1.5h-1.5v-1.5a0.76,0.76,0,0,0-.77-0.77V12a1.5,1.5,0,1,1,3,0v1.5Z"/></g></g></svg>