<svg id="Слой_1" data-name="Слой 1" xmlns="http://www.w3.org/2000/svg" viewBox="0 0 37.19 66.22"><defs></defs><title>extraterrestrial</title><g id="Слой_1-2" data-name="Слой_1"><g id="_2653649157392" data-name=" 2653649157392"><path class="cls-1" d="M47.51,30.31H20a0.82,0.82,0,0,1-.82-0.79V22.23a14.56,14.56,0,1,1,29.11,0v7.29A0.81,0.81,0,0,1,47.51,30.31ZM20.81,28.69H46.69V22.23a12.94,12.94,0,1,0-25.88,0v6.46Z" transform="translate(-15.17 -1.28)"/><path class="cls-1" d="M33.76,57.8a14.72,14.72,0,0,1-9.16-3.23,14,14,0,0,1-3.2-3.63,0.79,0.79,0,0,1,.26-1.11,0.77,0.77,0,0,1,1.11.26,13.48,13.48,0,0,0,2.86,3.23,13.05,13.05,0,0,0,8.14,2.86,12.88,12.88,0,0,0,11-6.12,0.8,0.8,0,0,1,1.36.85A14.47,14.47,0,0,1,33.76,57.8Z" transform="translate(-15.17 -1.28)"/><path class="cls-1" d="M47.51,33.54a0.82,0.82,0,0,1-.82-0.79V30.31H20.81v2.44a0.81,0.81,0,0,1-1.62,0V29.51A0.82,0.82,0,0,1,20,28.69h27.5a0.82,0.82,0,0,1,.79.82v3.23A0.81,0.81,0,0,1,47.51,33.54Z" transform="translate(-15.17 -1.28)"/><path class="cls-1" d="M28.09,20.61a3.23,3.23,0,1,1,3.23-3.23A3.23,3.23,0,0,1,28.09,20.61Zm0-4.85a1.6,1.6,0,0,0-1.62,1.62A1.62,1.62,0,0,0,28.09,19a1.63,1.63,0,0,0,1.62-1.62A1.62,1.62,0,0,0,28.09,15.76Z" transform="translate(-15.17 -1.28)"/><path class="cls-1" d="M39.41,20.61a3.23,3.23,0,1,1,3.23-3.23A3.23,3.23,0,0,1,39.41,20.61Zm0-4.85a1.62,1.62,0,0,0-1.62,1.62A1.63,1.63,0,0,0,39.41,19,1.62,1.62,0,0,0,41,17.38,1.6,1.6,0,0,0,39.41,15.76Z" transform="translate(-15.17 -1.28)"/><path class="cls-1" d="M21.55,7.74a3.23,3.23,0,0,1-1.79-5.93,3.38,3.38,0,0,1,1.79-.54A3.23,3.23,0,0,1,23.33,7.2,3.14,3.14,0,0,1,21.55,7.74Zm0-4.85a1.42,1.42,0,0,0-.88.28,1.55,1.55,0,0,0-.71,1,1.68,1.68,0,0,0,.23,1.22,1.66,1.66,0,0,0,2.24.45,1.61,1.61,0,0,0,.48-2.24A1.67,1.67,0,0,0,21.55,2.89Z" transform="translate(-15.17 -1.28)"/><path class="cls-1" d="M25.49,11.71a0.88,0.88,0,0,1-.68-0.37L22.28,7.51a0.81,0.81,0,0,1,1.36-.88l2.52,3.8a0.84,0.84,0,0,1-.23,1.13A0.94,0.94,0,0,1,25.49,11.71Z" transform="translate(-15.17 -1.28)"/><path class="cls-1" d="M25.66,26.25A0.77,0.77,0,0,1,25.09,26a0.8,0.8,0,0,1,0-1.13L27,23a0.8,0.8,0,0,1,1.13,0,0.84,0.84,0,0,1,0,1.16L26.25,26A0.79,0.79,0,0,1,25.66,26.25Z" transform="translate(-15.17 -1.28)"/><path class="cls-1" d="M29.17,26.25A0.88,0.88,0,0,1,28.55,26l-1.62-1.9A0.81,0.81,0,0,1,27,23a0.82,0.82,0,0,1,1.16.09l1.62,1.87a0.87,0.87,0,0,1-.09,1.16A0.93,0.93,0,0,1,29.17,26.25Z" transform="translate(-15.17 -1.28)"/><path class="cls-1" d="M29.71,26.25A0.73,0.73,0,0,1,29.14,26a0.8,0.8,0,0,1,0-1.13L31,23a0.82,0.82,0,0,1,1.16,1.16L30.28,26A0.73,0.73,0,0,1,29.71,26.25Z" transform="translate(-15.17 -1.28)"/><path class="cls-1" d="M33.23,26.25A0.88,0.88,0,0,1,32.6,26L31,24.1A0.81,0.81,0,0,1,31.07,23,0.78,0.78,0,0,1,32.2,23l1.62,1.87A0.79,0.79,0,0,1,33.23,26.25Z" transform="translate(-15.17 -1.28)"/><path class="cls-1" d="M33.76,26.25a0.79,0.79,0,0,1-.6-0.23,0.8,0.8,0,0,1,0-1.13l1.9-1.9a0.8,0.8,0,0,1,1.13,0,0.84,0.84,0,0,1,0,1.16L34.33,26A0.77,0.77,0,0,1,33.76,26.25Z" transform="translate(-15.17 -1.28)"/><path class="cls-1" d="M37.25,26.25a0.77,0.77,0,0,1-.6-0.26L35,24.1a0.82,0.82,0,0,1,1.25-1l1.62,1.87a0.84,0.84,0,0,1-.09,1.16A0.93,0.93,0,0,1,37.25,26.25Z" transform="translate(-15.17 -1.28)"/><path class="cls-1" d="M37.79,26.25A0.77,0.77,0,0,1,37.22,26a0.8,0.8,0,0,1,0-1.13l1.9-1.9a0.8,0.8,0,0,1,1.13,0,0.84,0.84,0,0,1,0,1.16L38.36,26A0.69,0.69,0,0,1,37.79,26.25Z" transform="translate(-15.17 -1.28)"/><path class="cls-1" d="M41.3,26.25A0.88,0.88,0,0,1,40.68,26l-1.62-1.9a0.8,0.8,0,0,1,1.22-1l1.62,1.87a0.82,0.82,0,0,1-.09,1.16A0.85,0.85,0,0,1,41.3,26.25Z" transform="translate(-15.17 -1.28)"/><path class="cls-1" d="M19.39,53H19a3.84,3.84,0,0,1-3.83-3.86V35.78A3.84,3.84,0,0,1,19,31.92h0.4a3.86,3.86,0,0,1,3.86,3.86V49.1A3.86,3.86,0,0,1,19.39,53ZM19,33.54a2.22,2.22,0,0,0-2.21,2.24V49.1A2.22,2.22,0,0,0,19,51.34h0.4a2.23,2.23,0,0,0,2.24-2.24V35.78a2.23,2.23,0,0,0-2.24-2.24H19Z" transform="translate(-15.17 -1.28)"/><path class="cls-1" d="M28.29,67.5H27.9A3.85,3.85,0,0,1,24,63.67v-8.5a3.46,3.46,0,0,1,.31-1.39,0.81,0.81,0,0,1,1-.43,0.82,0.82,0,0,1,.45,1.08,1.6,1.6,0,0,0-.2.74v8.5a2.24,2.24,0,0,0,2.24,2.21h0.4a2.24,2.24,0,0,0,2.24-2.21V57a0.79,0.79,0,0,1,.79-0.79,0.82,0.82,0,0,1,.82.79v6.69A3.85,3.85,0,0,1,28.29,67.5Z" transform="translate(-15.17 -1.28)"/><path class="cls-1" d="M38.81,67.5h-0.4a3.85,3.85,0,0,1-3.86-3.83V57a0.81,0.81,0,0,1,1.62,0v6.69a2.22,2.22,0,0,0,2.24,2.21h0.4A2.21,2.21,0,0,0,41,63.67v-8.5A0.78,0.78,0,0,0,41,54.83l0.77-.28,0.79-.2-0.79.2,0.79-.14a2,2,0,0,1,.11.77v8.5A3.83,3.83,0,0,1,38.81,67.5Z" transform="translate(-15.17 -1.28)"/><path class="cls-1" d="M48.51,53h-0.4a3.86,3.86,0,0,1-3.86-3.86V35.78a3.86,3.86,0,0,1,3.86-3.86h0.4a3.86,3.86,0,0,1,3.86,3.86V49.1A3.86,3.86,0,0,1,48.51,53Zm-0.4-19.42a2.24,2.24,0,0,0-2.24,2.24V49.1a2.24,2.24,0,0,0,2.24,2.24h0.4a2.24,2.24,0,0,0,2.24-2.24V35.78a2.24,2.24,0,0,0-2.24-2.24h-0.4Z" transform="translate(-15.17 -1.28)"/><path class="cls-1" d="M45.7,7.74h0a3.14,3.14,0,0,1-1.79-.54,3.16,3.16,0,0,1-1.39-2A3.25,3.25,0,0,1,45.7,1.28a3.38,3.38,0,0,1,1.79.54A3.23,3.23,0,0,1,45.7,7.74Zm0-4.85a1.62,1.62,0,0,0-1.59,2,1.62,1.62,0,0,0,.71,1,1.66,1.66,0,0,0,2.24-.45,1.68,1.68,0,0,0,.23-1.22,1.55,1.55,0,0,0-.71-1A1.42,1.42,0,0,0,45.7,2.89Z" transform="translate(-15.17 -1.28)"/><path class="cls-1" d="M41.76,11.71a0.94,0.94,0,0,1-.45-0.14,0.84,0.84,0,0,1-.23-1.13l2.52-3.8a0.82,0.82,0,0,1,1.13-.23A0.81,0.81,0,0,1,45,7.51l-2.52,3.83A0.88,0.88,0,0,1,41.76,11.71Z" transform="translate(-15.17 -1.28)"/></g></g></svg>