<svg id="Слой_1" data-name="Слой 1" xmlns="http://www.w3.org/2000/svg" viewBox="0 0 198.75 198.75"><defs><style>.cls-1{fill:none;}.cls-2{fill:#496194;}.cls-3{fill:#fff;}</style></defs><title>fb-modal </title><g id="Слой_1-2" data-name="Слой_1"><rect class="cls-1" width="198.72" height="198.72"/><g id="_1991431531568" data-name=" 1991431531568"><circle class="cls-2" cx="99.38" cy="99.38" r="99.38"/><path id="Facebook" class="cls-3" d="M74.55,95.07h9.78v54h21.74v-54h15.36l4.14-17.43H105.16a12.92,12.92,0,0,1-.43-3.29,12.76,12.76,0,0,1,1.87-6.69A12.08,12.08,0,0,1,114,65.19l0.57,0A21.76,21.76,0,0,1,124.8,69l4.39-15.36a64.58,64.58,0,0,0-18.14-3.88c-0.45,0-.88,0-1.33,0a33.65,33.65,0,0,0-14.06,3.06,17.53,17.53,0,0,0-8.22,8.84,28.78,28.78,0,0,0-2.58,11.85c0,0.62,0,1.28.06,1.9v2.27H74.86L74.55,95.07h0Z" transform="translate(-0.03 -0.03)"/></g></g></svg>