<svg id="Слой_1" data-name="Слой 1" xmlns="http://www.w3.org/2000/svg" viewBox="0 0 54.66 99.39"><defs></defs><title>fb</title><g id="Слой_1-2" data-name="Слой_1"><path id="Facebook" class="cls-1" d="M74.53,95.05h9.78v54h21.74v-54h15.36l4.14-17.43H105.14a12.92,12.92,0,0,1-.43-3.29,12.76,12.76,0,0,1,1.87-6.69A12.08,12.08,0,0,1,114,65.17l0.57,0A21.76,21.76,0,0,1,124.79,69l4.39-15.36A64.59,64.59,0,0,0,111,49.72c-0.45,0-.88,0-1.33,0a33.65,33.65,0,0,0-14.06,3.06,17.53,17.53,0,0,0-8.22,8.84,28.79,28.79,0,0,0-2.58,11.85c0,0.62,0,1.28.06,1.9v2.27H74.84Z" transform="translate(-74.53 -49.69)"/></g></svg>