<svg id="Слой_1" data-name="Слой 1" xmlns="http://www.w3.org/2000/svg" viewBox="0 0 99.28 99.28"><defs></defs><title>inst</title><g id="Слой_1-2" data-name="Слой_1"><path class="cls-1" d="M99.3,119.29a19.47,19.47,0,0,0,12.84-34.1,19.79,19.79,0,0,0-4.79-3.09,19.54,19.54,0,0,0-16.07,0,19.26,19.26,0,0,0-4.79,3.09,19.47,19.47,0,0,0,12.81,34.1h0Zm0.09-33.85A14.39,14.39,0,1,1,85,99.84,14.38,14.38,0,0,1,99.39,85.44ZM121,87h28V129.5A19.55,19.55,0,0,1,129.5,149h-60A19.75,19.75,0,0,1,49.75,129.5V87H77.65A25.27,25.27,0,1,0,121,87h0Zm8.5-37.22H78.69V70.42H74.56V49.75H70.42V70.42H66.28V50.06a20.73,20.73,0,0,0-4.14,1.11V70.42H58v-17a19.41,19.41,0,0,0-8.25,15.82V82.83h30.9a25.19,25.19,0,0,1,37.33,0h31V69.28A19.53,19.53,0,0,0,129.5,49.75Zm11.25,21.77a3.07,3.07,0,0,1-3.09,3H127.28a3.07,3.07,0,0,1-3.09-3V61.06A3.07,3.07,0,0,1,127.28,58h10.38a3.07,3.07,0,0,1,3.09,3.06V71.52h0Z" transform="translate(-49.75 -49.75)"/></g></svg>