<?xml version="1.0" encoding="UTF-8"?>
<!DOCTYPE svg PUBLIC "-//W3C//DTD SVG 1.0//EN" "http://www.w3.org/TR/2001/REC-SVG-20010904/DTD/svg10.dtd">
<!-- Creator: CorelDRAW X8 -->
<svg xmlns="http://www.w3.org/2000/svg" xml:space="preserve" width="23.8124mm" height="23.8124mm" version="1.0" style="shape-rendering:geometricPrecision; text-rendering:geometricPrecision; image-rendering:optimizeQuality; fill-rule:evenodd; clip-rule:evenodd"
viewBox="0 0 2381 2381"
 xmlns:xlink="http://www.w3.org/1999/xlink">
 <defs>
  <style type="text/css">
   <![CDATA[
    .fil0 {fill:none}
    .fil1 {fill:#FF5454}
   ]]>
  </style>
 </defs>
 <g id="Слой_x0020_1">
  <metadata id="CorelCorpID_0Corel-Layer"/>
  <rect class="fil0" width="2381" height="2381"/>
  <path class="fil1" d="M707 2381l968 0 0 -1014 0 -9 8 3 533 225 72 -226 -631 -542 -147 0 -6 0 0 -6 0 -282c0,-86 -35,-165 -92,-221 -57,-57 -135,-92 -221,-92 -87,0 -165,35 -222,92 -57,56 -92,135 -92,221l0 282 0 6 -6 0 -147 0 -631 542 73 226 532 -225 9 -3 0 9 0 1014zm670 -827l-59 0 0 -58 59 0 0 58zm-310 0l-59 0 0 -58 59 0 0 58zm254 -556l59 0 0 464 -59 0 0 -464zm-313 0l59 0 0 463 -59 0 0 -463zm608 1325l-179 -364 -217 0 0 364 396 0 0 0zm-452 -364l-214 0 -182 364 3 0 393 0 0 -364zm-399 288l155 -312c3,-5 8,-11 16,-11l228 0 0 -1055c-41,-11 -77,-44 -106,-87l0 0c-44,-66 -70,-152 -70,-219 0,-62 23,-119 60,-159 38,-41 89,-66 145,-66 57,0 108,25 145,66 38,40 61,97 61,159 0,67 -27,153 -70,219l0 0c-30,44 -67,78 -109,88l0 1054 222 0c6,0 14,3 17,11l163 328 0 -993 557 235 6 2 2 -6 38 -119 1 -4 -3 -2 -582 -501 -2 -2 -2 0 -186 0 0 -29 0 -314c0,-71 -29,-135 -76,-182l0 0c-47,-46 -111,-76 -182,-76 -70,0 -135,30 -181,76l-1 0c-46,47 -75,111 -75,182l0 343 -187 0 -2 0 -1 2 -583 501 -2 2 1 4 38 119 2 6 6 -2 557 -235 0 977zm323 -1800c27,-31 64,-50 105,-50 42,0 79,19 107,49 26,30 43,72 43,119 0,53 -21,120 -51,171 -28,49 -64,84 -99,84 -34,0 -71,-35 -99,-84 -29,-51 -50,-118 -50,-171 0,-46 17,-88 44,-118z"/>
 </g>
</svg>
