<svg id="Слой_1" data-name="Слой 1" xmlns="http://www.w3.org/2000/svg" viewBox="0 0 90.08 22.33"><defs></defs><title>logo</title><g id="Слой_1-2" data-name="Слой_1"><g id="_2653755273376" data-name=" 2653755273376"><path class="cls-1" d="M8.86,10.6L13.19,6H7.64L4.86,9.1V1.73H0V17.94h4.9V14.79l0.6-.6L7.3,17.94h5.84Z" transform="translate(0.04 -0.09)"/><path class="cls-1" d="M15.91,0.09a2.38,2.38,0,0,0-2.49,2.49,2.38,2.38,0,0,0,2.49,2.49,2.38,2.38,0,0,0,2.49-2.49A2.38,2.38,0,0,0,15.91.09Zm2.47,17.85V6H13.45v12h4.93Z" transform="translate(0.04 -0.09)"/><path class="cls-1" d="M27.84,5.78a4.13,4.13,0,0,0-3.63,1.9V6H19.28v12h4.93V12a1.65,1.65,0,0,1,1.56-1.93,1.45,1.45,0,0,1,1.42,1.64v6.21h4.93V10.31A4.19,4.19,0,0,0,27.84,5.78Z" transform="translate(0.04 -0.09)"/><path class="cls-1" d="M46.4,1.73H41.47v5.5A4.08,4.08,0,0,0,38.3,5.81c-3.26,0-5.36,2.38-5.36,6.09s2.18,6.23,5.5,6.23a3.85,3.85,0,0,0,3-1.39v1.19H46.4V1.73ZM39.71,14.34c-1.11,0-1.81-.91-1.81-2.32s0.71-2.32,1.81-2.32,1.76,0.94,1.76,2.32S40.76,14.34,39.71,14.34Z" transform="translate(0.04 -0.09)"/><path class="cls-1" d="M53.54,5.81c-3.83,0-6.38,2.44-6.38,6.21s2.44,6.12,6.52,6.12a6.93,6.93,0,0,0,5.41-2.21l-2.55-2.49a3.62,3.62,0,0,1-2.44,1,2,2,0,0,1-2-1.42h7.79C60.17,8.64,57.74,5.81,53.54,5.81ZM52,10.8A1.77,1.77,0,0,1,53.6,9.1,1.44,1.44,0,0,1,55,10.8H52Z" transform="translate(0.04 -0.09)"/><path class="cls-1" d="M65.64,6H60.71v12h4.93v-5.7c0-1.56,1.45-2.35,3.66-2V5.78a4.23,4.23,0,0,0-3.66,2V6Z" transform="translate(0.04 -0.09)"/><path class="cls-1" d="M75.14,17.94V1.73H70.21V17.94h4.93Z" transform="translate(0.04 -0.09)"/><path class="cls-1" d="M90,6H85.17l-2,6.83L80.86,6H75.79l5,11.59-0.17.28a1.18,1.18,0,0,1-1.16.62,2.31,2.31,0,0,1-1.62-.71l-2,3.23a6.49,6.49,0,0,0,4.14,1.42,5.18,5.18,0,0,0,5.24-3.63Z" transform="translate(0.04 -0.09)"/></g></g></svg>