<svg id="Слой_1" data-name="Слой 1" xmlns="http://www.w3.org/2000/svg" viewBox="0 0 18 16.5"><defs></defs><title>messengers</title><g id="Слой_1-2" data-name="Слой_1"><g id="Line_Icons" data-name="Line Icons"><path class="cls-1" d="M15.76,18l-4-3H9.38a1.14,1.14,0,0,1-1.13-1.13V8.62A1.11,1.11,0,0,1,9.38,7.51h7.48A1.11,1.11,0,0,1,18,8.62v5.24A1.14,1.14,0,0,1,16.87,15H15.76v3Zm-6-4.51h2.49l2,1.5v-1.5H16.5V9H9.75v4.48Z" transform="translate(0 -1.5)"/><path class="cls-1" d="M2.24,15V12H1.13A1.11,1.11,0,0,1,0,10.89V2.64A1.14,1.14,0,0,1,1.13,1.5h9.75A1.11,1.11,0,0,1,12,2.64V6h-1.5V3h-9v7.48H3.74V12l2-1.5h1V12H6.24Z" transform="translate(0 -1.5)"/></g></g></svg>