<svg id="Слой_1" data-name="Слой 1" xmlns="http://www.w3.org/2000/svg" viewBox="0 0 46.41 39.32"><defs></defs><title>navigation-03</title><g id="Слой_1-2" data-name="Слой_1"><path class="cls-1" d="M12.39,15.45a5.66,5.66,0,0,1,1.53-2.32,5.52,5.52,0,0,1,3.69-1.42h0.34a1,1,0,0,0,.4-0.14,1,1,0,0,0,.4-0.62h0a0.9,0.9,0,0,0-.17-0.71,0.82,0.82,0,0,0-.6-0.4h0a0.93,0.93,0,0,0-.74.14,1,1,0,0,0-.4.62l-1.11-.2a2.08,2.08,0,0,1,.85-1.33,2.05,2.05,0,0,1,1.53-.37h0.06a2.08,2.08,0,0,1,1.33.88,2,2,0,0,1,.37,1.5l0,0.06a1.92,1.92,0,0,1-.4.88,5.94,5.94,0,0,1,2,1.28v0a5.41,5.41,0,0,1,0,7.71h0a5.22,5.22,0,0,1-3.15,1.56l2,2.47a4.1,4.1,0,0,1,3-1,4.25,4.25,0,0,1,2.89,1.33L29,28.41a2.1,2.1,0,0,0,.91.74,5,5,0,0,0,2.24.23,2.59,2.59,0,0,1,2,.65,2.24,2.24,0,0,1,.48.82,1.6,1.6,0,0,1,0,1A1.9,1.9,0,0,1,33.43,33c-0.91.37-2.3,0.79-3.43,1.13l-0.2.06-0.94.31c-0.2.06-.37,0.14-0.6,0.2l1.59,1.9A6,6,0,0,1,32.07,38h0a5.76,5.76,0,0,1,1.73,4.14,5.87,5.87,0,0,1-1.73,4.17h0A5.85,5.85,0,0,1,27.93,48a6,6,0,0,1-4.17-1.7h0A6,6,0,0,1,22,42.13c0-.06,0-0.11,0-0.17Q21.16,42,20.27,42a12.69,12.69,0,0,1-1.81-.2V42.1a5.85,5.85,0,0,1-1.7,4.14h0a5.82,5.82,0,0,1-8.28,0h0A5.76,5.76,0,0,1,6.72,42.1a5.87,5.87,0,0,1,1.73-4.17h0a5.74,5.74,0,0,1,2.24-1.39,13.08,13.08,0,0,1-1-2.49,15.17,15.17,0,0,1-.45-3.57V13.41L7,10.66A2.94,2.94,0,0,0,4.9,9.81a2.87,2.87,0,0,0-2.1.88,2.87,2.87,0,0,0-.88,2.1,2.92,2.92,0,0,0,.88,2.1h0l1.59,1.73a0.55,0.55,0,0,1,0,.79,0.57,0.57,0,0,1-.79,0L2,15.68H2a4.11,4.11,0,0,1,2.92-7A4,4,0,0,1,7.8,9.89l2.49,3h0.09V13ZM46.07,39H44.54A0.57,0.57,0,0,1,44,38.42a0.55,0.55,0,0,1,.57-0.57h1.53v-1.7H44.54A0.57,0.57,0,0,1,44,35.58,0.55,0.55,0,0,1,44.54,35h1.53V33.6l-0.85-.68H38.79l-0.88.68V46.24a0.46,0.46,0,0,0,.14.31,0.43,0.43,0,0,0,.31.11h7.29A0.43,0.43,0,0,0,46,46.55a0.59,0.59,0,0,0,.11-0.31V44.65H44.54A0.57,0.57,0,0,1,44,44.09a0.55,0.55,0,0,1,.57-0.57h1.53v-1.7H44.54A0.57,0.57,0,0,1,44,41.25a0.55,0.55,0,0,1,.57-0.57h1.53V39ZM42,24.69a1.76,1.76,0,0,1,1.28.54,1.78,1.78,0,0,1,.51,1.25,7.48,7.48,0,0,0,.11,1.25,4.83,4.83,0,0,0,.45,1.47h0.31a1.24,1.24,0,0,1,.94.4,1.28,1.28,0,0,1,.4.91v1.56l1.22,1V46.24a1.55,1.55,0,0,1-1.56,1.56H38.36a1.57,1.57,0,0,1-1.11-.45,1.48,1.48,0,0,1-.48-1.11V33.06l1.25-1V30.51a1.26,1.26,0,0,1,.37-0.91,1.29,1.29,0,0,1,.94-0.4h0.31a5.93,5.93,0,0,0,.48-1.47,7,7,0,0,0,.09-1.25A1.84,1.84,0,0,1,42,24.69Zm1.13,4.51a8.91,8.91,0,0,1-.37-1.28,10.32,10.32,0,0,1-.11-1.45A0.64,0.64,0,0,0,42.47,26a0.74,0.74,0,0,0-.48-0.2,0.68,0.68,0,0,0-.65.65,7.27,7.27,0,0,1-.11,1.45,6.12,6.12,0,0,1-.34,1.28h2.24Zm-4,2.58h5.7V30.51a0.15,0.15,0,0,0-.06-0.11,0.22,0.22,0,0,0-.14-0.06H39.32a0.2,0.2,0,0,0-.17.17v1.28ZM12.59,39.15a2.93,2.93,0,0,1,2.1.85,3.06,3.06,0,0,1,.85,2.1,2.95,2.95,0,0,1-5.9,0,3.06,3.06,0,0,1,.85-2.1A2.93,2.93,0,0,1,12.59,39.15Zm1.28,1.67a1.78,1.78,0,0,0-2.55,0,1.71,1.71,0,0,0-.54,1.28,1.76,1.76,0,0,0,.54,1.28,1.78,1.78,0,0,0,2.55,0,1.76,1.76,0,0,0,.54-1.28A1.71,1.71,0,0,0,13.86,40.83Zm4.42-.14a15.61,15.61,0,0,0,2,.23,14.23,14.23,0,0,0,1.9-.11A5.86,5.86,0,0,1,23.76,38h0a5.87,5.87,0,0,1,4.17-1.73h0.2L10.38,14.8V30.48a13,13,0,0,0,.43,3.29,10.45,10.45,0,0,0,1,2.49,6.91,6.91,0,0,1,.77,0,5.85,5.85,0,0,1,4.14,1.7h0A6,6,0,0,1,18.29,40.68Zm-2.35-1.93a4.72,4.72,0,0,0-6.69,0h0a4.72,4.72,0,0,0,0,6.69h0a4.72,4.72,0,0,0,6.69,0h0a4.72,4.72,0,0,0,0-6.69h0ZM20.78,25.6l6.75,8.17c0.31-.11.62-0.26,1-0.37l1-.31L29.66,33c1.13-.34,2.52-0.77,3.35-1.11a0.85,0.85,0,0,0,.48-0.45,0.58,0.58,0,0,0,0-.31,0.54,0.54,0,0,0-.2-0.31,1.37,1.37,0,0,0-1.11-.34,5.93,5.93,0,0,1-2.75-.31,3.23,3.23,0,0,1-1.3-1l-2.78-3.06a3,3,0,0,0-2.1-1,3,3,0,0,0-2.18.77ZM18,12.84a1.38,1.38,0,0,1-.48,0,4.43,4.43,0,0,0-2.81,1.11,4.38,4.38,0,0,0-1.39,2.61l4.11,5h0.2a4.31,4.31,0,0,0,3.06-1.28h0a4.31,4.31,0,0,0,1.28-3.06,4.26,4.26,0,0,0-1.28-3.06h0A4.46,4.46,0,0,0,18,12.84Zm10,26.34a2.94,2.94,0,0,1,2.07.88,2.84,2.84,0,0,1,.88,2.07,3,3,0,0,1-.88,2.1,2.93,2.93,0,0,1-5-2.1,2.82,2.82,0,0,1,.85-2.07A3,3,0,0,1,27.93,39.18Zm1.28,1.67a1.81,1.81,0,1,0,0,2.55A1.78,1.78,0,0,0,29.2,40.85Zm2.07-2.07a4.74,4.74,0,0,0-3.35-1.39,4.8,4.8,0,0,0-3.37,1.39h0a4.72,4.72,0,0,0,0,6.69h0a4.69,4.69,0,0,0,3.37,1.39,4.62,4.62,0,0,0,3.35-1.39h0a4.72,4.72,0,0,0,0-6.69h0Z" transform="translate(-0.79 -8.68)"/></g></svg>