<svg id="Слой_1" data-name="Слой 1" xmlns="http://www.w3.org/2000/svg" viewBox="0 0 48 39.69"><defs></defs><title>navigation-04</title><g id="Слой_1-2" data-name="Слой_1"><path class="cls-1" d="M6.95,32.92A2.51,2.51,0,1,1,5.16,37.2h0a2.5,2.5,0,0,1,0-3.54l0,0A2.46,2.46,0,0,1,6.95,32.92Zm4.2-13.86a0.57,0.57,0,0,1-1.13,0V17.32a1.8,1.8,0,0,0-.74.45,1.76,1.76,0,0,0-.54,1.28,1.84,1.84,0,0,0,1.84,1.84,1.76,1.76,0,0,0,1.28-.54,1.82,1.82,0,0,0,.54-1.3,1.76,1.76,0,0,0-.54-1.28,1.9,1.9,0,0,0-.71-0.45v1.73ZM10,16.16V13H5.76L1.13,17.8V46.87H20V17.8L15.37,13H11.14v3.12a3.07,3.07,0,0,1,1.53.79,3,3,0,0,1,.85,2.1,3,3,0,0,1-5.93,0A3,3,0,0,1,8.48,17,3,3,0,0,1,10,16.16Zm0-4.25v-3a0.57,0.57,0,0,1,1.13,0v3h4.45a0.63,0.63,0,0,1,.43.17l4.9,5.07a0.6,0.6,0,0,1,.2.43V47.43a0.57,0.57,0,0,1-.57.57h-20A0.57,0.57,0,0,1,0,47.43V17.58a0.56,0.56,0,0,1,.17-0.4L5.1,12.11a0.55,0.55,0,0,1,.43-0.2H10Zm6.12,16.73a0.57,0.57,0,0,1,0,1.13H5a0.57,0.57,0,0,1,0-1.13H16.13ZM5,26.93A0.57,0.57,0,0,1,5,25.8H16.13a0.57,0.57,0,0,1,0,1.13H5Zm30.9,18.8a4.37,4.37,0,0,1-1.33,1,4,4,0,0,1-1.93.48,4.2,4.2,0,0,1-3-1.25h0a4.18,4.18,0,0,1-1.22-3,5,5,0,0,1,0-.65,0.36,0.36,0,0,0,0-.17L28.1,42h-3a0.57,0.57,0,0,1-.57-0.57V36.86a0.57,0.57,0,0,1,.57-0.57h3L34,33.48a0.1,0.1,0,0,1,.06,0l2.18-1,0.09,0,4.25-2a0.53,0.53,0,0,1,.74.26,0.42,0.42,0,0,1,.06.26V47.43a0.57,0.57,0,0,1-.57.57,0.68,0.68,0,0,1-.26-0.06Zm-6.32-3V43a3.16,3.16,0,0,0,.88,2.18h0a3.06,3.06,0,0,0,2.18.91,3.37,3.37,0,0,0,1.42-.34,3,3,0,0,0,.77-0.57Zm17.86-4.11a0.57,0.57,0,1,1,0,1.13H44.37a0.57,0.57,0,1,1,0-1.13h3.06ZM34.84,34.33v1.45a0.57,0.57,0,0,1-1.13,0V34.87l-4.93,2.35v3.88l11.48,5.44V31.78l-3.15,1.47v3.88a0.57,0.57,0,0,1-1.13,0V33.8Zm-7.2,6.55V37.42h-2v3.46h2Zm18.29,2.81a0.56,0.56,0,0,1-.79.79L43,42.3a0.56,0.56,0,0,1,.79-0.79Zm-0.79-9.78a0.56,0.56,0,0,1,.79.79l-2.18,2.18a0.6,0.6,0,0,1-.79,0,0.58,0.58,0,0,1,0-.82Zm-31.41-.79a0.56,0.56,0,0,1,.85.74L7.12,42.73a0.58,0.58,0,0,1-.79.06A0.55,0.55,0,0,1,6.24,42Zm0.48,4.76a2.49,2.49,0,0,1,1.76.74L16,38.67a2.49,2.49,0,0,1,.68,1.73A2.39,2.39,0,0,1,16,42.19a2.51,2.51,0,0,1-4.28-1.79,2.61,2.61,0,0,1,.74-1.79A2.5,2.5,0,0,1,14.2,37.88Zm1,1.56a1.38,1.38,0,0,0-1-.43,1.39,1.39,0,0,0-1,.43,1.38,1.38,0,0,0,2,2,1.37,1.37,0,0,0,.4-1,1.33,1.33,0,0,0-.37-0.94Zm-7.26-5a1.35,1.35,0,0,0-1-.4,1.4,1.4,0,0,0-1,.37l0,0a1.35,1.35,0,0,0-.4,1A1.36,1.36,0,0,0,6.95,36.8a1.35,1.35,0,0,0,1-.4,1.37,1.37,0,0,0,.4-1A1.35,1.35,0,0,0,7.91,34.45Z" transform="translate(0 -8.31)"/></g></svg>