<svg id="Слой_1" data-name="Слой 1" xmlns="http://www.w3.org/2000/svg" viewBox="0 0 43.41 42.84"><defs></defs><title>navigation-02</title><g id="Слой_1-2" data-name="Слой_1"><path class="cls-1" d="M32.83,26a1.67,1.67,0,0,0-.4.06,1.91,1.91,0,0,0-.88.48,1.11,1.11,0,0,0-.34.71,0.42,0.42,0,0,0,0,.2l0.45,1.93H34l0.45-1.93a0.42,0.42,0,0,0,0-.2,1.11,1.11,0,0,0-.34-0.71A2,2,0,0,0,32.83,26ZM6.55,5.16A2.06,2.06,0,0,1,8,5.78a2.07,2.07,0,0,1,.11,2.78l1.45,2.15a9.53,9.53,0,0,1,9.53,0L20.5,8.59A1.9,1.9,0,0,1,20,7.29a2,2,0,0,1,.6-1.45h0a2.15,2.15,0,0,1,1.47-.6,2.09,2.09,0,0,1,1.45.6,2.05,2.05,0,0,1,0,2.89,2,2,0,0,1-1.45.62,2.63,2.63,0,0,1-.68-0.11L20,11.34c0.34,0.28.68,0.57,1,.88a9.42,9.42,0,0,1,2.78,6.72v5.93a2.71,2.71,0,0,1,1.67.77,2.59,2.59,0,0,1,.77,1.84v8.45a2.59,2.59,0,0,1-.77,1.84h0a2.59,2.59,0,0,1-1.84.77,2.56,2.56,0,0,1-1.76-.68c-0.17.2-.34,0.43-0.54,0.62a7.75,7.75,0,0,1-1,.94v6a2.5,2.5,0,0,1-.77,1.84h0a2.6,2.6,0,0,1-3.69,0,2.5,2.5,0,0,1-.77-1.84V41.56l-0.79,0-0.82,0v3.83a2.5,2.5,0,0,1-.77,1.84h0a2.61,2.61,0,0,1-4.45-1.84v-6a10.51,10.51,0,0,1-1.56-1.62A2.61,2.61,0,0,1,2.3,35.92V27.47a2.59,2.59,0,0,1,.77-1.84,2.64,2.64,0,0,1,1.76-.77V18.94A9.42,9.42,0,0,1,7.6,12.22a10.35,10.35,0,0,1,1-.88L7.17,9.19a2.21,2.21,0,0,1-.62.09A2,2,0,0,1,5.1,5.78h0A2.06,2.06,0,0,1,6.55,5.16ZM7.2,6.58a0.89,0.89,0,0,0-1.3,0h0A0.91,0.91,0,1,0,7.2,6.58ZM22.71,6.63a0.79,0.79,0,0,0-.62-0.26,0.85,0.85,0,0,0-.65.26h0a0.89,0.89,0,0,0,0,1.3,0.87,0.87,0,0,0,.65.28,0.86,0.86,0,0,0,.62-0.28A0.89,0.89,0,0,0,22.71,6.63Zm-4.85,6.78a2,2,0,0,1,2,2,2.15,2.15,0,0,1-.6,1.47,2.05,2.05,0,0,1-2.89,0,2.15,2.15,0,0,1-.6-1.47,2,2,0,0,1,.6-1.45h0A2,2,0,0,1,17.86,13.41Zm0.65,1.39a1,1,0,0,0-1.3,0h0a1,1,0,0,0,0,1.3,0.89,0.89,0,0,0,1.3,0A1,1,0,0,0,18.51,14.8Zm-7.85-1.33a2,2,0,0,1,1.45.6,2,2,0,0,1,.62,1.45,2,2,0,0,1-.6,1.45,2.18,2.18,0,0,1-1.47.62A2.06,2.06,0,0,1,9.21,17a2.05,2.05,0,0,1,0-2.89h0A2,2,0,0,1,10.66,13.47Zm0.65,1.39a1,1,0,0,0-1.3,0h0a1,1,0,0,0,0,1.3A0.92,0.92,0,1,0,11.31,14.86ZM6,22.79h16.7V18.94a8.35,8.35,0,1,0-16.7,0v3.86Zm16.7,1.13H6v1.16a3,3,0,0,1,.79.54,2.59,2.59,0,0,1,.77,1.84v8.45a2.63,2.63,0,0,1-.14.82,8.5,8.5,0,0,0,2.92,2.67,8.34,8.34,0,0,0,4,1A8.7,8.7,0,0,0,17,40a8.56,8.56,0,0,0,2.44-1.36,8,8,0,0,0,1-.94l0.68-.85A2.61,2.61,0,0,1,21,35.92V27.47a2.59,2.59,0,0,1,.77-1.84,2.46,2.46,0,0,1,.88-0.57V23.93ZM4.9,37.4A1.58,1.58,0,0,0,6,37H6a1.53,1.53,0,0,0,.43-1V27.47a1.46,1.46,0,0,0-.43-1,1.44,1.44,0,0,0-2.1,0,1.46,1.46,0,0,0-.43,1v8.45a1.48,1.48,0,0,0,.43,1A1.58,1.58,0,0,0,4.9,37.4Zm18.71,0a1.58,1.58,0,0,0,1-.43h0a1.53,1.53,0,0,0,.43-1V27.47a1.46,1.46,0,0,0-.43-1,1.44,1.44,0,0,0-2.1,0,1.46,1.46,0,0,0-.43,1v8.45a1.48,1.48,0,0,0,.43,1A1.58,1.58,0,0,0,23.62,37.4Zm-4.42,2.84a10.19,10.19,0,0,1-1.79.82,7.85,7.85,0,0,1-1.16.34v4a1.48,1.48,0,0,0,.43,1,1.51,1.51,0,0,0,2.1,0h0a1.48,1.48,0,0,0,.43-1V40.23Zm-6.83,1.16a9.54,9.54,0,0,1-2.64-1l-0.31-.17v5.16a1.48,1.48,0,0,0,.43,1,1.58,1.58,0,0,0,1,.43,1.48,1.48,0,0,0,1-.43h0a1.48,1.48,0,0,0,.43-1v-4Zm7.4-21a0.56,0.56,0,0,1-.79.79l-0.88-.85-0.85.85a0.55,0.55,0,0,1-.79,0l-0.88-.85-0.85.85a0.58,0.58,0,0,1-.82,0L13,20.3l-0.85.85a0.58,0.58,0,0,1-.82,0l-0.85-.85-0.85.85a0.58,0.58,0,0,1-.82,0,0.55,0.55,0,0,1,0-.79l1.28-1.28a0.6,0.6,0,0,1,.79,0L11.77,20l0.88-.88a0.6,0.6,0,0,1,.79,0L14.32,20l0.85-.88a0.6,0.6,0,0,1,.79,0L16.84,20l0.85-.88a0.6,0.6,0,0,1,.79,0Zm22.82,12.7H39.49c-0.23.71-.48,1.45-0.77,2.15a14,14,0,0,0-1.22,4.85,10.65,10.65,0,0,0,.71,3.54,28,28,0,0,0,1.47,3.26h2.72a27.82,27.82,0,0,0,1.45-3.26,10.65,10.65,0,0,0,.71-3.54,14,14,0,0,0-1.22-4.85C43.09,34.5,42.81,33.77,42.58,33.06Zm-2.78-1.13h2.47a11.38,11.38,0,0,1-.2-1.42H40A11.38,11.38,0,0,1,39.81,31.92Zm0.11-2.55h2.24l0.48-1.93v-0.2a1.07,1.07,0,0,0-.31-0.71A2,2,0,0,0,41.05,26a1.67,1.67,0,0,0-.4.06,1.91,1.91,0,0,0-.88.48,1,1,0,0,0-.34.71,0.42,0.42,0,0,0,0,.2Zm0.45-4.42a2.8,2.8,0,0,1,.68-0.09,2.75,2.75,0,0,1,.65.09,3.18,3.18,0,0,1,1.42.79,2.21,2.21,0,0,1,.65,1.5,1.18,1.18,0,0,1-.06.45L43.18,30a15.27,15.27,0,0,0,1.22,4.82,15.18,15.18,0,0,1,1.3,5.25A12.14,12.14,0,0,1,44.94,44a27.23,27.23,0,0,1-1.7,3.69L43.09,48H39l-0.14-.31A31.2,31.2,0,0,1,37.14,44c-0.06-.23-0.14-0.43-0.2-0.65-0.09.23-.14,0.43-0.23,0.65A31.07,31.07,0,0,1,35,47.69L34.87,48H30.79l-0.17-.31A31.07,31.07,0,0,1,28.95,44a11.49,11.49,0,0,1-.79-3.94,15.18,15.18,0,0,1,1.3-5.25A14.61,14.61,0,0,0,30.71,30l-0.57-2.3a2.2,2.2,0,0,1-.06-0.45,2.12,2.12,0,0,1,.68-1.5,3.18,3.18,0,0,1,1.42-.79,2.54,2.54,0,0,1,1.3,0,3.18,3.18,0,0,1,1.42.79,2.12,2.12,0,0,1,.68,1.5,2.2,2.2,0,0,1-.06.45L35,30a14.61,14.61,0,0,0,1.25,4.82c0.26,0.68.51,1.39,0.74,2.07,0.23-.68.48-1.39,0.74-2.07A14.54,14.54,0,0,0,38.9,30l-0.54-2.3a1.18,1.18,0,0,1-.06-0.45,2.21,2.21,0,0,1,.65-1.5A3.18,3.18,0,0,1,40.37,24.95Zm-6,8.11H31.27c-0.23.71-.48,1.45-0.74,2.15a14.09,14.09,0,0,0-1.25,4.85A10.65,10.65,0,0,0,30,43.61a33.71,33.71,0,0,0,1.47,3.26h2.72a33.71,33.71,0,0,0,1.47-3.26,10.65,10.65,0,0,0,.71-3.54,14.09,14.09,0,0,0-1.25-4.85C34.87,34.5,34.62,33.77,34.39,33.06Zm-2.81-1.13h2.49a7.78,7.78,0,0,1-.23-1.42h-2A7.78,7.78,0,0,1,31.58,31.92Z" transform="translate(-2.3 -5.16)"/></g></svg>