<svg id="Слой_1" data-name="Слой 1" xmlns="http://www.w3.org/2000/svg" viewBox="0 0 45.33 42.75"><defs></defs><title>navigation-01</title><g id="Слой_1-2" data-name="Слой_1"><path class="cls-1" d="M4.39,25.94l2,2.32,5.76-5a0.58,0.58,0,0,1,.79.06,0.55,0.55,0,0,1-.06.79L12,24.84v8.59h5V19.51a6.37,6.37,0,0,1-3.4-1.39l-0.43.71a0.56,0.56,0,0,1-.48.26H11.51ZM18.2,33.43h5.19V25l-1-.91a0.56,0.56,0,1,1,.74-0.85l5.7,5,2-2.32-7-6.8H22.51A0.53,0.53,0,0,1,22,18.83l-0.45-.71a6.38,6.38,0,0,1-3.37,1.39V33.43Zm0-16.22v1.13a5.39,5.39,0,0,0,3.32-1.7,6.4,6.4,0,0,0,0-8.51,5.17,5.17,0,0,0-7.77,0,6.15,6.15,0,0,0-1.64,4.25,6.15,6.15,0,0,0,1.64,4.25,5.24,5.24,0,0,0,3.32,1.7V17.21a4.05,4.05,0,0,1-3.43-4.08,4,4,0,0,1,1.16-2.89A3.85,3.85,0,0,1,17.63,9a3.9,3.9,0,0,1,2.84,1.22,4.17,4.17,0,0,1,1.16,2.89A4.29,4.29,0,0,1,20.47,16,4.16,4.16,0,0,1,18.2,17.21ZM19.65,11a2.74,2.74,0,0,0-2-.85,2.85,2.85,0,0,0-2,.85,3.16,3.16,0,0,0,0,4.25,2.85,2.85,0,0,0,2,.85,2.74,2.74,0,0,0,2-.85A3.08,3.08,0,0,0,19.65,11Zm2.78,6.32,0.4,0.62H24a0.71,0.71,0,0,1,.4.17l9.36,9a0.57,0.57,0,0,1,0,.79L31.16,31a0.55,0.55,0,0,1-.79.09L24.52,26V48h-6V40.77a1.33,1.33,0,0,0-.28-0.85,0.77,0.77,0,0,0-.57-0.31,0.69,0.69,0,0,0-.57.31,1.2,1.2,0,0,0-.31.85V48h-6V25.83l-6,5.25A0.55,0.55,0,0,1,4.11,31L1.47,27.93a0.58,0.58,0,0,1,.06-0.79l9.36-9a0.57,0.57,0,0,1,.4-0.17h1.16l0.4-.62A7.34,7.34,0,0,1,11,12.39a7.25,7.25,0,0,1,2-5,6.27,6.27,0,0,1,9.41,0,7.35,7.35,0,0,1,1.93,5A7.45,7.45,0,0,1,22.43,17.32Zm1,17.24H12v12.3h3.69v-6.1a2.52,2.52,0,0,1,.57-1.59,1.83,1.83,0,0,1,2.89,0,2.5,2.5,0,0,1,.54,1.59v6.1h3.69V34.56Zm6.27-5.61,1,0.88,1.93-2.24-1-.91ZM5.53,29l-2-2.27-0.88.85,1.9,2.24Zm31.19,9.5a0.58,0.58,0,0,1-.09.79,0.55,0.55,0,0,1-.79-0.09l-0.26-.31a8,8,0,0,1-4,1.25v6.72H42.87V33.54a5.21,5.21,0,0,1-1.84-.6,6.39,6.39,0,0,1-1.33-1,15.81,15.81,0,0,1-.51,1.93,2.39,2.39,0,0,1-.14.48l0.37,0.26a0.57,0.57,0,1,1-.62,1l-0.2-.17c-0.2.37-.37,0.68-0.6,1l0.34,0.26a0.58,0.58,0,0,1,0,.82,0.55,0.55,0,0,1-.79,0l-0.23-.2c-0.28.28-.57,0.6-0.85,0.85ZM34.87,38l-0.2-.26A0.55,0.55,0,0,1,34.76,37a0.58,0.58,0,0,1,.79.09l0.23,0.28a8.7,8.7,0,0,0,.71-0.74l-0.31-.26a0.55,0.55,0,0,1,0-.79,0.58,0.58,0,0,1,.79-0.06l0.2,0.2c0.17-.28.34-0.57,0.48-0.85l-0.37-.26a0.56,0.56,0,1,1,.62-0.94L38,33.77l0.06-.2a25.4,25.4,0,0,0,.68-2.72c0.26-1,.45-2,0.71-2.69A4.19,4.19,0,0,1,41,25.94a3.25,3.25,0,0,1,1.87-.57v0h3.8V48H30.48V39H31A7.12,7.12,0,0,0,34.87,38ZM40,30.62a4.64,4.64,0,0,0,2.86,1.79v-5.9a2.32,2.32,0,0,0-1.25.37,3,3,0,0,0-1,1.67A20.32,20.32,0,0,0,40,30.62ZM38.79,41.45A1.55,1.55,0,0,0,37.23,43a1.52,1.52,0,0,0,.45,1.11,1.51,1.51,0,0,0,2.21,0A1.52,1.52,0,0,0,40.34,43a1.57,1.57,0,0,0-.45-1.11h0A1.57,1.57,0,0,0,38.79,41.45Zm-1.9-.34a2.67,2.67,0,0,1,3.8,0h0a2.59,2.59,0,0,1,.79,1.9,2.65,2.65,0,0,1-.79,1.93,2.67,2.67,0,0,1-3.8,0A2.65,2.65,0,0,1,36.09,43,2.59,2.59,0,0,1,36.89,41.11ZM44,26.48V46.87h1.53V26.48H44Z" transform="translate(-1.34 -5.25)"/></g></svg>