<svg id="Слой_1" data-name="Слой 1" xmlns="http://www.w3.org/2000/svg" viewBox="0 0 12.39 9.55"><defs></defs><title>open-book</title><g id="Слой_1-2" data-name="Слой_1"><path class="cls-1" d="M14.06,5.07a6.53,6.53,0,0,0-2-.28A5.32,5.32,0,0,0,9,5.61,5.47,5.47,0,0,0,5.9,4.79a5.43,5.43,0,0,0-3.09.82v8.25a0.3,0.3,0,0,0,.28.28c0.06,0,.09,0,0.14,0a6.9,6.9,0,0,1,2.66-.62A5.27,5.27,0,0,1,9,14.34a6.62,6.62,0,0,1,3.09-.85,5.73,5.73,0,0,1,2.66.6,0.26,0.26,0,0,0,.14,0,0.3,0.3,0,0,0,.28-0.28V5.61a4.65,4.65,0,0,0-1.13-.54h0Zm0,7.57a7.56,7.56,0,0,0-2-.26A6.6,6.6,0,0,0,9,13.21V6.75A6.62,6.62,0,0,1,12.1,5.9a6.53,6.53,0,0,1,2,.28v6.46h0Z" transform="translate(-2.81 -4.79)"/></g></svg>