<svg id="Слой_1" data-name="Слой 1" xmlns="http://www.w3.org/2000/svg" viewBox="0 0 18 6.66"><defs></defs><title>phone-red</title><g id="Слой_1-2" data-name="Слой_1"><g id="_1809206558224" data-name=" 1809206558224"><path class="cls-1" d="M9,6.75a11.47,11.47,0,0,0-3.46.54V9.61a0.73,0.73,0,0,1-.43.68,8.3,8.3,0,0,0-2,1.39,0.75,0.75,0,0,1-.54.2,0.89,0.89,0,0,1-.54-0.2L0.23,9.81A0.66,0.66,0,0,1,0,9.3,0.73,0.73,0,0,1,.23,8.76,12.6,12.6,0,0,1,9,5.24a12.58,12.58,0,0,1,8.76,3.51A0.73,0.73,0,0,1,18,9.3a0.66,0.66,0,0,1-.23.51l-1.84,1.87a0.75,0.75,0,0,1-1.08,0,8.3,8.3,0,0,0-2-1.39,0.73,0.73,0,0,1-.43-0.68V7.29A11.43,11.43,0,0,0,9,6.75Z" transform="translate(0 -5.24)"/></g></g></svg>