<svg id="Слой_1" data-name="Слой 1" xmlns="http://www.w3.org/2000/svg" viewBox="0 0 13.52 13.52"><defs></defs><title>phone-modal</title><g id="Слой_1-2" data-name="Слой_1"><path class="cls-1" d="M5,8.08a11.49,11.49,0,0,0,5,5l1.64-1.64a0.76,0.76,0,0,1,.77-0.2,8.2,8.2,0,0,0,2.66.43,0.76,0.76,0,0,1,.77.77V15a0.76,0.76,0,0,1-.77.77A12.78,12.78,0,0,1,2.24,3,0.76,0.76,0,0,1,3,2.24H5.61A0.76,0.76,0,0,1,6.38,3,8.2,8.2,0,0,0,6.8,5.67a0.71,0.71,0,0,1-.2.77L5,8.08H5Z" transform="translate(-2.24 -2.24)"/></g></svg>