<svg id="Слой_1" data-name="Слой 1" xmlns="http://www.w3.org/2000/svg" viewBox="0 0 15 15"><defs></defs><title>popular-brand</title><g id="Слой_1-2" data-name="Слой_1"><g id="Line_Icons" data-name="Line Icons"><path class="cls-1" d="M16.21,6.92a0.69,0.69,0,0,0-.79-0.09L11.54,8.76,9.64,5.61a0.77,0.77,0,0,0-1.28,0L6.46,8.76,2.58,6.83a0.69,0.69,0,0,0-.79.09,0.72,0.72,0,0,0-.26.77L2.86,13a1.53,1.53,0,0,0-.62,1.22V15a1.51,1.51,0,0,0,1.5,1.5H14.26a1.51,1.51,0,0,0,1.5-1.5V14.26A1.53,1.53,0,0,0,15.14,13l1.33-5.36A0.72,0.72,0,0,0,16.21,6.92ZM6.41,10.43a0.79,0.79,0,0,0,1-.28L9,7.46l1.59,2.69a0.79,0.79,0,0,0,1,.28l3-1.53-1,3.86H4.34l-1-3.86ZM14.26,15H3.74V14.26H14.26V15Z" transform="translate(-1.5 -1.5)"/><circle class="cls-1" cx="7.51" cy="1.5" r="1.5"/></g></g></svg>