<svg id="Слой_1" data-name="Слой 1" xmlns="http://www.w3.org/2000/svg" viewBox="0 0 16.5 15"><defs></defs><title>registration-modal</title><g id="Слой_1-2" data-name="Слой_1"><g id="Line_Icons" data-name="Line Icons"><path class="cls-1" d="M6,12A3,3,0,1,1,9,9,3,3,0,0,1,6,12ZM6,7.51A1.49,1.49,0,0,0,4.51,9a1.5,1.5,0,0,0,3,0A1.49,1.49,0,0,0,6,7.51Z" transform="translate(0 -3)"/><path class="cls-1" d="M12,18H0V17.26c0-2.66,2.47-4.51,6-4.51s6,1.84,6,4.51V18ZM1.62,16.5h8.76C9.92,15.14,8.25,14.26,6,14.26S2.07,15.14,1.62,16.5Z" transform="translate(0 -3)"/><path class="cls-1" d="M16.5,5.24H14.26V3h-1.5V5.24H10.49v1.5h2.27V9h1.5V6.75H16.5V5.24Z" transform="translate(0 -3)"/></g></g></svg>