<svg id="Слой_1" data-name="Слой 1" xmlns="http://www.w3.org/2000/svg" viewBox="0 0 18 14.14"><defs></defs><title>ring-black</title><g id="Слой_1-2" data-name="Слой_1"><path class="cls-1" d="M17.77,12.5a12.78,12.78,0,0,0-17.55,0A0.73,0.73,0,0,0,0,13a0.77,0.77,0,0,0,.23.54l1.84,1.84a0.77,0.77,0,0,0,.54.23,0.89,0.89,0,0,0,.54-0.2,8.07,8.07,0,0,1,2-1.39,0.79,0.79,0,0,0,.43-0.68V11.06A10.66,10.66,0,0,1,9,10.49a11.43,11.43,0,0,1,3.43.54v2.35a0.72,0.72,0,0,0,.43.65,8.3,8.3,0,0,1,2,1.39,0.75,0.75,0,0,0,1.08,0l1.84-1.87A0.66,0.66,0,0,0,18,13a0.73,0.73,0,0,0-.23-0.54h0Zm-1.9-7.8-1-1.08L12.13,6.29l1.08,1.08S15.79,4.71,15.87,4.71ZM9.75,1.5H8.25V5.24h1.5V1.5Zm-5,5.87L5.87,6.29,3.2,3.63,2.13,4.71C2.21,4.71,4.79,7.37,4.79,7.37Z" transform="translate(0 -1.5)"/></g></svg>