<svg id="Слой_1" data-name="Слой 1" xmlns="http://www.w3.org/2000/svg" viewBox="0 0 15.73 15.7"><defs></defs><title>ruler</title><g id="Слой_1-2" data-name="Слой_1"><g id="Line_Icons" data-name="Line Icons"><path class="cls-1" d="M16.78,4.37L13.61,1.19a1.54,1.54,0,0,0-2.13,0L1.93,10.74a1.46,1.46,0,0,0-.43,1,1.52,1.52,0,0,0,.43,1.08L5.13,16a1.46,1.46,0,0,0,1,.43A1.52,1.52,0,0,0,7.26,16l9.52-9.55a1.48,1.48,0,0,0,.45-1A1.5,1.5,0,0,0,16.78,4.37ZM6.18,15h0L3,11.79,4.59,10.2l1.59,1.59,1.08-1L5.64,9.16,7.26,7.54,8.84,9.16l1-1.08L8.31,6.49,9.89,4.9l1.59,1.59,1.08-1L10.94,3.86l1.62-1.62,3.17,3.2Z" transform="translate(-1.5 -0.77)"/></g></g></svg>