<svg id="Слой_1" data-name="Слой 1" xmlns="http://www.w3.org/2000/svg" viewBox="0 0 12.76 16.5"><defs></defs><title>sale-rules</title><g id="Слой_1-2" data-name="Слой_1"><g id="_2313415286896" data-name=" 2313415286896"><g id="Line_Icons" data-name="Line Icons"><path class="cls-1" d="M14.2,6H10.46v1.5h3v6.75H12v1.5H3.71V7.51H6V6H3a0.76,0.76,0,0,0-.77.77V16.5a0.76,0.76,0,0,0,.77.77h9.75A0.71,0.71,0,0,0,13.24,17l1.5-1.5A0.71,0.71,0,0,0,15,15V6.77A0.76,0.76,0,0,0,14.2,6Z" transform="translate(-2.21 -0.77)"/><rect class="cls-1" x="3" y="8.25" width="6.75" height="1.5"/><rect class="cls-1" x="3" y="11.25" width="6.75" height="1.5"/><path class="cls-1" d="M7.45,5.13V7.51a0.75,0.75,0,0,0,1.5,0V5.13A2.25,2.25,0,1,0,6,3,2.28,2.28,0,0,0,7.45,5.13Z" transform="translate(-2.21 -0.77)"/></g></g></g></svg>