<svg id="Слой_1" data-name="Слой 1" xmlns="http://www.w3.org/2000/svg" viewBox="0 0 13.52 13.52"><defs></defs><title>service-red-mob</title><g id="Слой_1-2" data-name="Слой_1"><g id="_1809206126416" data-name=" 1809206126416"><g id="Line_Icons" data-name="Line Icons"><path class="cls-1" d="M6.41,14.26a3,3,0,0,0,5.19,0H6.41Z" transform="translate(-2.24 -2.24)"/><path class="cls-1" d="M15.76,13.49H2.24v-2l0.51-.17A2.53,2.53,0,0,0,4.51,8.87V6.75a4.49,4.49,0,1,1,9,0V8.87a2.53,2.53,0,0,0,1.76,2.41l0.51,0.17v2ZM4.54,12h8.93A4,4,0,0,1,12,8.87V6.75a3,3,0,1,0-6,0V8.87A4,4,0,0,1,4.54,12Z" transform="translate(-2.24 -2.24)"/></g></g></g></svg>