<svg id="Слой_1" data-name="Слой 1" xmlns="http://www.w3.org/2000/svg" viewBox="0 0 37.17 60.02"><defs></defs><title>shoes</title><g id="Слой_1-2" data-name="Слой_1"><path class="cls-1" d="M51.31,7.48c-4.34,0-7.17,1-9,2.38A8,8,0,0,0,39,16.39v0.28l0,0.28v0.11L39,17.18,28.66,41.33l-0.09.23-0.23.09L15.73,46a0.73,0.73,0,0,0-.4.31,0.77,0.77,0,0,0-.17.48,9.62,9.62,0,0,0,1.93,5.39,6.29,6.29,0,0,0,4.25,2.3l0.37,0.06,0.09,0.34a30.78,30.78,0,0,0,4.48,9.38A17.32,17.32,0,0,0,29,67.33h0a1,1,0,0,0,.26.14h0a0.78,0.78,0,0,0,.26,0h22a0.79,0.79,0,0,0,.57-0.23h0a0.82,0.82,0,0,0,.26-0.6V8.31a0.71,0.71,0,0,0-.26-0.57,0.71,0.71,0,0,0-.57-0.26h-0.2Zm-28.15,46A0.88,0.88,0,0,0,22.85,53a0.72,0.72,0,0,0-.48-0.17,4.92,4.92,0,0,1-4.08-1.9A7.42,7.42,0,0,1,17,47.77l-0.09-.45,0.45-.17L29.45,43h0a0.1,0.1,0,0,0,.09,0h0a0.21,0.21,0,0,0,.11-0.06l0.28-.17,0.28,0.14,3.8,2a0.84,0.84,0,0,0,1.13-.37c0-.06,0-0.11.06-0.17h0a0.48,0.48,0,0,0,0-.2,0.94,0.94,0,0,0-.11-0.43,0.72,0.72,0,0,0-.34-0.31h0l-3.8-2-0.43-.23,0.2-.48L32,37.85l0.23-.54,0.51,0.26,3.88,1.79a0.69,0.69,0,0,0,.62,0h0A1,1,0,0,0,37.7,39h0c0-.06,0-0.11.06-0.17h0c0-.06,0-0.11,0-0.17a0.78,0.78,0,0,0-.14-0.45,0.72,0.72,0,0,0-.34-0.31h0l-4-1.84-0.48-.23,0.23-.48,1.3-3.06,0.23-.51,0.48,0.23,3.8,1.7a0.76,0.76,0,0,0,.65,0A0.75,0.75,0,0,0,40,33.25h0c0-.06,0-0.11.06-0.17V32.91a0.83,0.83,0,0,0-.11-0.45,0.67,0.67,0,0,0-.37-0.31l-3.83-1.73-0.48-.23,0.2-.48,5.22-12.19a0.67,0.67,0,0,0,.06-0.23,0.39,0.39,0,0,0,0-.26h0s0-.28,0-0.65a6.42,6.42,0,0,1,.88-3.29,6.83,6.83,0,0,1,2.47-2.35l0.82-.48V65.86h-15l-0.17-.17a19.42,19.42,0,0,1-3-3.86A29.67,29.67,0,0,1,23.16,53.47Zm27,12.39H46.55V9.72L47,9.61l1.45-.26C49,9.27,49.5,9.24,50.09,9.19l0.57,0v56.7H50.12Z" transform="translate(-15.17 -7.48)"/></g></svg>