	<svg id="Слой_1" data-name="Слой 1" xmlns="http://www.w3.org/2000/svg" viewBox="0 0 24 24"><defs></defs><title>shopping-bag-timeout</title><g id="Line_Icons" data-name="Line Icons"><path class="cls-1" d="M6,11V8H17.09L17,6.92A1,1,0,0,0,16,6H14V5A5,5,0,0,0,4,5V6H2a1,1,0,0,0-1,.92l-1,12A1,1,0,0,0,1,20H8V18H2.09L2.92,8H4v3H6ZM6,5a3,3,0,0,1,6,0V6H6V5Z" transform="translate(0)"/><path class="cls-1" d="M17,10a7,7,0,1,0,7,7A7,7,0,0,0,17,10Zm0,12a5,5,0,1,1,5-5A5,5,0,0,1,17,22Z" transform="translate(0)"/><polygon class="cls-1" points="18 13 16 13 16 18 20 18 20 16 18 16 18 13"/></g></svg>