<svg id="Слой_1" data-name="Слой 1" xmlns="http://www.w3.org/2000/svg" viewBox="0 0 16.5 17.26"><defs></defs><title>timer-black</title><g id="Слой_1-2" data-name="Слой_1"><g id="Line_Icons" data-name="Line Icons"><path class="cls-1" d="M7.71,13.29L5.47,11a0.77,0.77,0,0,1-.23-0.54V6.75h1.5v3.43l2,2Z"/><path class="cls-1" d="M12.76,12.76a5.27,5.27,0,0,1-1.19-.14A5.28,5.28,0,1,1,7.94,5.39a5.92,5.92,0,0,1,.85-1.33,7,7,0,0,0-2-.31,6.76,6.76,0,1,0,6.38,9C13,12.73,12.87,12.76,12.76,12.76Z"/><path class="cls-1" d="M12.76,0c1.25,5-1.5,6.58-1.5,6.58V4A3.82,3.82,0,0,0,9,7.51a3.74,3.74,0,1,0,7.48,0C16.5,5.56,16.5,3.74,12.76,0Z"/></g></g></svg>