<svg id="Слой_1" data-name="Слой 1" xmlns="http://www.w3.org/2000/svg" viewBox="0 0 198.75 198.75"><defs><style>.cls-1{fill:none;}.cls-2{fill:#9069ae;}.cls-3{fill:#fff;}</style></defs><title>viber-modal</title><g id="Слой_1-2" data-name="Слой_1"><rect class="cls-1" width="198.72" height="198.72"/><circle class="cls-2" cx="99.38" cy="99.38" r="99.38"/><g id="_1533576290304" data-name=" 1533576290304"><path class="cls-3" d="M94.56,48.07c0.94-.77,1.53-0.77,4.56-0.77a41.89,41.89,0,0,1,5.16.4c6.32,0.77,10.32,1.7,15.87,4.39a51.08,51.08,0,0,1,13.75,9.55,42.12,42.12,0,0,1,9.35,12.58c3.63,7.09,5.53,15.28,5.92,24.46,0.2,3.06,0,3.83-.77,4.76a3.41,3.41,0,0,1-5.53-.57c-0.4-.57-0.4-1.13-0.6-3.63a62.42,62.42,0,0,0-.94-9.35c-2.13-11.65-7.85-21-17-27.69-7.65-5.56-14.34-7.65-24.63-8.42-3.63,0-4.22,0-5-.77C93.2,52.1,93.2,49.4,94.56,48.07Z" transform="translate(-0.03 -0.03)"/><path class="cls-3" d="M113.46,72a36,36,0,0,0-14.14-4.22c-1.73-.17-2.86-0.57-3.43-1.33a2.91,2.91,0,0,1-.4-3.83c1-1.53,2.49-1.7,6.89-.94,11.08,1.53,19.67,6.66,25.4,14.88A33,33,0,0,1,133.5,92.4a36.51,36.51,0,0,1,0,6.66,2.92,2.92,0,0,1-1.7,1.73,3.35,3.35,0,0,1-3.06-.2c-1.33-.77-1.93-1.7-1.93-4.76a26.79,26.79,0,0,0-3.43-13.38A26.2,26.2,0,0,0,113.46,72Z" transform="translate(-0.03 -0.03)"/><path class="cls-3" d="M118.22,97.16a3.4,3.4,0,0,1-4.19,0c-1-.57-1.13-1.33-1.33-3.26a20.06,20.06,0,0,0-1.33-5.73c-1.53-3.43-4.39-5.16-9.18-5.73-2.3-.2-2.86-0.57-3.63-1.33a3.31,3.31,0,0,1,1-5c0.77-.4,1-0.4,2.47-0.2a14.31,14.31,0,0,1,3.06.4,18.58,18.58,0,0,1,8.79,4.19,16.49,16.49,0,0,1,5.36,11.08C119.56,94.87,119.39,96.2,118.22,97.16Z" transform="translate(-0.03 -0.03)"/><path class="cls-3" d="M149,137.84a6.39,6.39,0,0,0-1.73-4.39c-1.13-1.33-9-7.62-12.78-10.12-2.86-1.9-7.26-4.56-9.16-5.53a9.59,9.59,0,0,0-9.18-.2c-1.13.57-2.1,1.73-4.39,4.39a31.58,31.58,0,0,1-3.06,3.63,0.18,0.18,0,0,0-.17.2,6.35,6.35,0,0,1-1.16.57h0c-2.47,1.13-5.73.4-11.08-2.1a50.81,50.81,0,0,1-12-8.42,50.68,50.68,0,0,1-9.18-10.49c-2.66-4.19-4.56-9.55-4.56-12.61a8.91,8.91,0,0,1,1.13-4h0l0.2-.2,0.17-.2a1,1,0,0,1,.6-0.37c0.77-.6,1.7-1.53,2.66-2.3,4.39-3.46,5.36-4.59,5.92-6.49s0-4.39-1.9-7.85c-3.46-6.29-13-18.34-16.44-20.61-0.57-.4-1.53-0.77-2.1-1.16A14.37,14.37,0,0,0,56,49.23c-1.7.37-3.8,1.7-8.59,5.16-2.86,2.1-6.69,5.73-7.62,7.26-2.13,3.63-1.93,6.49.57,13.55a125.52,125.52,0,0,0,8.79,18.71h0l0.2,0.2c0.74,1.16,1.5,2.49,2.27,3.63,0,0.2.2,0.2,0.2,0.4,0.77,1.13,1.53,2.47,2.3,3.63,0.37,0.37.57,0.94,1,1.33a20.07,20.07,0,0,0,1.9,2.66c1,1.33,1.9,2.69,3.06,4a145.75,145.75,0,0,0,38.38,34.95,6.78,6.78,0,0,0,.6.37c2.27,1.36,4.56,2.69,6.86,4,0.4,0.2.57,0.37,1,.57,2.3,1.33,4.76,2.49,7.26,3.63,0.2,0.2.57,0.2,0.77,0.4,2.49,1.13,5.16,2.3,7.82,3.43,3.26,1.33,4.39,1.53,6.89,1.33a9.1,9.1,0,0,0,3.23-.57,14.77,14.77,0,0,0,4.59-2.3c0.4-.2.57-0.37,1-0.57a4.89,4.89,0,0,0,1.13-1,45.12,45.12,0,0,0,6.32-6.86,24.05,24.05,0,0,0,2.86-4.79C148.78,140.53,149,139.2,149,137.84Z" transform="translate(-0.03 -0.03)"/></g></g></svg>