<svg id="Слой_1" data-name="Слой 1" xmlns="http://www.w3.org/2000/svg" viewBox="0 0 198.75 198.75"><defs><style>.cls-1{fill:none;}.cls-2{fill:#6996c7;}.cls-3{fill:#fff;}</style></defs><title>vk-modal</title><g id="Слой_1-2" data-name="Слой_1"><rect class="cls-1" width="198.72" height="198.72"/><g id="_1991436020944" data-name=" 1991436020944"><circle class="cls-2" cx="99.38" cy="99.38" r="99.38"/><path id="В" class="cls-3" d="M130.3,102.3A21.27,21.27,0,0,0,118.42,95V94.5a17.79,17.79,0,0,0,8.08-7.68,23.75,23.75,0,0,0,2.92-11.48V74.46a23.06,23.06,0,0,0-2.13-9.75,16.44,16.44,0,0,0-6.41-7.06,23.52,23.52,0,0,0-8.53-3.23,89,89,0,0,0-11.65-.79H99l-28.32,0v91.5h32.06l1.25,0a45.44,45.44,0,0,0,12.5-1.76,27.13,27.13,0,0,0,9.92-5.75,24.33,24.33,0,0,0,6.07-8.53,29.61,29.61,0,0,0,2.27-11.39v-0.6c0-.4,0-0.79,0-1.22a23,23,0,0,0-4.48-13.63h0ZM109,78.51v0Zm-18.31,1V70.44h1.42q5.36,0,8.08.09a10.89,10.89,0,0,1,4.71,1.08A6.43,6.43,0,0,1,108,75a11.38,11.38,0,0,1,1,4.54,11.52,11.52,0,0,1-1,4.56,6.43,6.43,0,0,1-3.09,3.37,11.77,11.77,0,0,1-4.71,1.08q-2.72.09-8.08,0.09H90.7v-9.1Zm18.31,1v0Zm3.8,42.09a8.54,8.54,0,0,1-4,4,15.42,15.42,0,0,1-6.12,1.67c-2,.09-5.64.11-10.86,0.11H90.7V105.44h3.71c3.6,0,6.43.06,8.59,0.11h0.14a13.61,13.61,0,0,1,4.88.88,9.33,9.33,0,0,1,4.54,3.63,12.48,12.48,0,0,1,1.5,6v0.91a13.44,13.44,0,0,1-1.25,5.67h0Z" transform="translate(-0.03 -0.03)"/></g></g></svg>