<svg id="Слой_1" data-name="Слой 1" xmlns="http://www.w3.org/2000/svg" viewBox="0 0 64.1 91.57"><defs></defs><title>vk</title><g id="Слой_1-2" data-name="Слой_1"><path id="В" class="cls-1" d="M130.29,102.28A21.28,21.28,0,0,0,118.41,95V94.48a17.79,17.79,0,0,0,8.08-7.68,23.75,23.75,0,0,0,2.92-11.48V74.44a23.06,23.06,0,0,0-2.13-9.75,16.45,16.45,0,0,0-6.41-7.06,23.52,23.52,0,0,0-8.53-3.23,89.06,89.06,0,0,0-11.65-.79H99l-28.32,0v91.51h32.06l1.25,0a45.45,45.45,0,0,0,12.5-1.76,27.13,27.13,0,0,0,9.92-5.75,24.34,24.34,0,0,0,6.07-8.53,29.62,29.62,0,0,0,2.27-11.4v-0.6c0-.4,0-0.79,0-1.22a23,23,0,0,0-4.48-13.64h0ZM109,78.5v0Zm-18.31,1V70.42H92.1q5.36,0,8.08.09a10.89,10.89,0,0,1,4.71,1.08A6.43,6.43,0,0,1,108,75a11.39,11.39,0,0,1,1,4.54,11.52,11.52,0,0,1-1,4.56,6.43,6.43,0,0,1-3.09,3.37,11.77,11.77,0,0,1-4.71,1.08q-2.72.09-8.08,0.09H90.69v-9.1Zm18.31,1v0Zm3.8,42.1a8.54,8.54,0,0,1-4,4,15.42,15.42,0,0,1-6.12,1.67c-2,.09-5.64.11-10.86,0.11H90.69V105.43H94.4c3.6,0,6.44.06,8.59,0.11h0.14a13.62,13.62,0,0,1,4.88.88,9.34,9.34,0,0,1,4.54,3.63,12.49,12.49,0,0,1,1.5,6v0.91a13.44,13.44,0,0,1-1.25,5.67h0Z" transform="translate(-70.67 -53.61)"/></g></svg>