<svg id="Слой_1" data-name="Слой 1" xmlns="http://www.w3.org/2000/svg" viewBox="0 0 198.75 198.75"><defs><style>.cls-1{fill:none;}.cls-2{fill:#2eb743;}.cls-3{fill:#fff;}</style></defs><title>whatsup-modal</title><g id="Слой_1-2" data-name="Слой_1"><rect class="cls-1" width="198.72" height="198.72"/><circle class="cls-2" cx="99.38" cy="99.38" r="99.38"/><path id="WhatsApp" class="cls-3" d="M160.34,97.82c0,32.79-26.79,59.38-59.84,59.38a60,60,0,0,1-28.94-7.37L38.46,160.34l10.8-31.86a58.6,58.6,0,0,1-8.59-30.67c0-32.79,26.79-59.35,59.84-59.35S160.34,65,160.34,97.82ZM100.51,47.9C72.76,47.9,50.2,70.29,50.2,97.82a49.46,49.46,0,0,0,9.58,29.28l-6.29,18.54,19.33-6.15a50.35,50.35,0,0,0,78-41.67C150.82,70.29,128.26,47.9,100.51,47.9Zm30.22,63.6c-0.37-.62-1.36-1-2.81-1.7s-8.7-4.25-10-4.73-2.32-.74-3.29.74-3.8,4.73-4.65,5.7-1.73,1.08-3.17.37A40.36,40.36,0,0,1,95,104.65a43.65,43.65,0,0,1-8.13-10.09c-0.88-1.45-.11-2.24.62-2.95s1.47-1.7,2.21-2.55a10.75,10.75,0,0,0,1.47-2.44A2.68,2.68,0,0,0,91,84.07c-0.37-.74-3.29-7.88-4.51-10.8S84,70.83,83.16,70.83s-1.81-.11-2.81-0.11a5.49,5.49,0,0,0-3.91,1.81,16.39,16.39,0,0,0-5.13,12.16c0,7.14,5.24,14.06,6,15.05s10.15,16.13,25.06,22,14.91,3.88,17.6,3.63,8.67-3.51,9.92-6.92S131.09,112.1,130.72,111.51Z" transform="translate(-0.03 -0.03)"/></g></svg>