<svg id="Слой_1" data-name="Слой 1" xmlns="http://www.w3.org/2000/svg" viewBox="0 0 7.5 14.26"><defs></defs><title>woman-modal</title><g id="Слой_1-2" data-name="Слой_1"><g id="Line_Icons" data-name="Line Icons"><path class="cls-1" d="M9,6.75A2.25,2.25,0,0,1,6.75,4.51a2.25,2.25,0,1,1,4.51,0A2.24,2.24,0,0,1,9,6.75Zm0-3a0.75,0.75,0,1,0,0,1.5A0.75,0.75,0,0,0,9,3.74Z" transform="translate(-5.25 -2.24)"/><path class="cls-1" d="M9.75,16.5H8.25A0.73,0.73,0,0,1,7.54,16c-0.2-.62-0.43-1.3-0.57-1.73H6a0.69,0.69,0,0,1-.57-0.31,0.7,0.7,0,0,1-.14-0.62L6.41,8.82a2.66,2.66,0,0,1,5.19,0l1.13,4.48a0.7,0.7,0,0,1-.14.62,0.65,0.65,0,0,1-.57.31H11c-0.14.43-.37,1.11-0.57,1.73A0.71,0.71,0,0,1,9.75,16.5Zm-1-1.5H9.21c0.71-2.24.74-2.24,1.28-2.24h0.57L10.86,12c-0.34-1.36-.34-1.36-0.54-2.13l-0.2-.74a1.14,1.14,0,0,0-2.24,0l-0.2.77c-0.2.77-.2,0.77-0.54,2.13l-0.2.71H7.57C8.05,12.76,8.11,12.84,8.79,15Z" transform="translate(-5.25 -2.24)"/></g></g></svg>